<svg width="349" height="175" viewBox="0 0 349 175" fill="none" xmlns="http://www.w3.org/2000/svg">
<rect width="349" height="175" rx="40" fill="#FED438"/>
<g clip-path="url(#clip0_30_51)">
<path d="M81 31V98.7919H41V31H81ZM81 113.895V144H41V113.895H81Z" fill="black"/>
</g>
<path d="M129.136 43.575V49.965H139.441V55.905H129.136V62.835H140.791V69H121.441V37.41H140.791V43.575H129.136ZM174.047 69H166.352L153.482 49.515V69H145.787V37.41H153.482L166.352 56.985V37.41H174.047V69ZM202.125 74.4L198.075 68.955C196.875 69.195 195.705 69.315 194.565 69.315C191.595 69.315 188.865 68.625 186.375 67.245C183.915 65.865 181.95 63.945 180.48 61.485C179.04 58.995 178.32 56.205 178.32 53.115C178.32 50.025 179.04 47.25 180.48 44.79C181.95 42.33 183.915 40.41 186.375 39.03C188.865 37.65 191.595 36.96 194.565 36.96C197.535 36.96 200.25 37.65 202.71 39.03C205.2 40.41 207.15 42.33 208.56 44.79C210 47.25 210.72 50.025 210.72 53.115C210.72 55.815 210.165 58.29 209.055 60.54C207.975 62.76 206.46 64.605 204.51 66.075L211.44 74.4H202.125ZM186.195 53.115C186.195 55.905 186.945 58.14 188.445 59.82C189.975 61.47 192.015 62.295 194.565 62.295C197.085 62.295 199.095 61.455 200.595 59.775C202.125 58.095 202.89 55.875 202.89 53.115C202.89 50.325 202.125 48.105 200.595 46.455C199.095 44.775 197.085 43.935 194.565 43.935C192.015 43.935 189.975 44.76 188.445 46.41C186.945 48.06 186.195 50.295 186.195 53.115ZM222.649 37.41V56.31C222.649 58.2 223.114 59.655 224.044 60.675C224.974 61.695 226.339 62.205 228.139 62.205C229.939 62.205 231.319 61.695 232.279 60.675C233.239 59.655 233.719 58.2 233.719 56.31V37.41H241.414V56.265C241.414 59.085 240.814 61.47 239.614 63.42C238.414 65.37 236.794 66.84 234.754 67.83C232.744 68.82 230.494 69.315 228.004 69.315C225.514 69.315 223.279 68.835 221.299 67.875C219.349 66.885 217.804 65.415 216.664 63.465C215.524 61.485 214.954 59.085 214.954 56.265V37.41H222.649ZM254.512 37.41V69H246.817V37.41H254.512ZM276.199 69L269.629 57.075H267.784V69H260.089V37.41H273.004C275.494 37.41 277.609 37.845 279.349 38.715C281.119 39.585 282.439 40.785 283.309 42.315C284.179 43.815 284.614 45.495 284.614 47.355C284.614 49.455 284.014 51.33 282.814 52.98C281.644 54.63 279.904 55.8 277.594 56.49L284.884 69H276.199ZM267.784 51.63H272.554C273.964 51.63 275.014 51.285 275.704 50.595C276.424 49.905 276.784 48.93 276.784 47.67C276.784 46.47 276.424 45.525 275.704 44.835C275.014 44.145 273.964 43.8 272.554 43.8H267.784V51.63ZM297.139 43.575V49.965H307.444V55.905H297.139V62.835H308.794V69H289.444V37.41H308.794V43.575H297.139ZM207.885 137H200.19L187.32 117.515V137H179.625V105.41H187.32L200.19 124.985V105.41H207.885V137ZM228.403 137.315C225.433 137.315 222.703 136.625 220.213 135.245C217.753 133.865 215.788 131.945 214.318 129.485C212.878 126.995 212.158 124.205 212.158 121.115C212.158 118.025 212.878 115.25 214.318 112.79C215.788 110.33 217.753 108.41 220.213 107.03C222.703 105.65 225.433 104.96 228.403 104.96C231.373 104.96 234.088 105.65 236.548 107.03C239.038 108.41 240.988 110.33 242.398 112.79C243.838 115.25 244.558 118.025 244.558 121.115C244.558 124.205 243.838 126.995 242.398 129.485C240.958 131.945 239.008 133.865 236.548 135.245C234.088 136.625 231.373 137.315 228.403 137.315ZM228.403 130.295C230.923 130.295 232.933 129.455 234.433 127.775C235.963 126.095 236.728 123.875 236.728 121.115C236.728 118.325 235.963 116.105 234.433 114.455C232.933 112.775 230.923 111.935 228.403 111.935C225.853 111.935 223.813 112.76 222.283 114.41C220.783 116.06 220.033 118.295 220.033 121.115C220.033 123.905 220.783 126.14 222.283 127.82C223.813 129.47 225.853 130.295 228.403 130.295ZM292.309 105.41L284.074 137H274.759L269.719 116.21L264.499 137H255.184L247.174 105.41H255.409L259.954 128.405L265.579 105.41H274.039L279.439 128.405L284.029 105.41H292.309ZM306.293 104.285L305.393 125.84H298.868L297.968 104.285H306.293ZM302.243 137.36C300.893 137.36 299.783 136.97 298.913 136.19C298.073 135.38 297.653 134.39 297.653 133.22C297.653 132.02 298.073 131.015 298.913 130.205C299.783 129.395 300.893 128.99 302.243 128.99C303.563 128.99 304.643 129.395 305.483 130.205C306.353 131.015 306.788 132.02 306.788 133.22C306.788 134.39 306.353 135.38 305.483 136.19C304.643 136.97 303.563 137.36 302.243 137.36Z" fill="black"/>
<defs>
<clipPath id="clip0_30_51">
<rect width="40" height="113" fill="white" transform="translate(41 31)"/>
</clipPath>
</defs>
</svg>
