<svg width="486" height="175" viewBox="0 0 486 175" fill="none" xmlns="http://www.w3.org/2000/svg">
<rect width="486" height="175" rx="40" fill="#FED438"/>
<path d="M335.179 69.315C332.869 69.315 330.799 68.94 328.969 68.19C327.139 67.44 325.669 66.33 324.559 64.86C323.479 63.39 322.909 61.62 322.849 59.55H331.039C331.159 60.72 331.564 61.62 332.254 62.25C332.944 62.85 333.844 63.15 334.954 63.15C336.094 63.15 336.994 62.895 337.654 62.385C338.314 61.845 338.644 61.11 338.644 60.18C338.644 59.4 338.374 58.755 337.834 58.245C337.324 57.735 336.679 57.315 335.899 56.985C335.149 56.655 334.069 56.28 332.659 55.86C330.619 55.23 328.954 54.6 327.664 53.97C326.374 53.34 325.264 52.41 324.334 51.18C323.404 49.95 322.939 48.345 322.939 46.365C322.939 43.425 324.004 41.13 326.134 39.48C328.264 37.8 331.039 36.96 334.459 36.96C337.939 36.96 340.744 37.8 342.874 39.48C345.004 41.13 346.144 43.44 346.294 46.41H337.969C337.909 45.39 337.534 44.595 336.844 44.025C336.154 43.425 335.269 43.125 334.189 43.125C333.259 43.125 332.509 43.38 331.939 43.89C331.369 44.37 331.084 45.075 331.084 46.005C331.084 47.025 331.564 47.82 332.524 48.39C333.484 48.96 334.984 49.575 337.024 50.235C339.064 50.925 340.714 51.585 341.974 52.215C343.264 52.845 344.374 53.76 345.304 54.96C346.234 56.16 346.699 57.705 346.699 59.595C346.699 61.395 346.234 63.03 345.304 64.5C344.404 65.97 343.084 67.14 341.344 68.01C339.604 68.88 337.549 69.315 335.179 69.315ZM366.375 69.315C363.405 69.315 360.675 68.625 358.185 67.245C355.725 65.865 353.76 63.945 352.29 61.485C350.85 58.995 350.13 56.205 350.13 53.115C350.13 50.025 350.85 47.25 352.29 44.79C353.76 42.33 355.725 40.41 358.185 39.03C360.675 37.65 363.405 36.96 366.375 36.96C369.345 36.96 372.06 37.65 374.52 39.03C377.01 40.41 378.96 42.33 380.37 44.79C381.81 47.25 382.53 50.025 382.53 53.115C382.53 56.205 381.81 58.995 380.37 61.485C378.93 63.945 376.98 65.865 374.52 67.245C372.06 68.625 369.345 69.315 366.375 69.315ZM366.375 62.295C368.895 62.295 370.905 61.455 372.405 59.775C373.935 58.095 374.7 55.875 374.7 53.115C374.7 50.325 373.935 48.105 372.405 46.455C370.905 44.775 368.895 43.935 366.375 43.935C363.825 43.935 361.785 44.76 360.255 46.41C358.755 48.06 358.005 50.295 358.005 53.115C358.005 55.905 358.755 58.14 360.255 59.82C361.785 61.47 363.825 62.295 366.375 62.295ZM394.506 63.06H404.586V69H386.811V37.41H394.506V63.06ZM427.921 63.42H416.131L414.241 69H406.186L417.616 37.41H426.526L437.956 69H429.811L427.921 63.42ZM425.941 57.48L422.026 45.915L418.156 57.48H425.941ZM457.545 69L450.975 57.075H449.13V69H441.435V37.41H454.35C456.84 37.41 458.955 37.845 460.695 38.715C462.465 39.585 463.785 40.785 464.655 42.315C465.525 43.815 465.96 45.495 465.96 47.355C465.96 49.455 465.36 51.33 464.16 52.98C462.99 54.63 461.25 55.8 458.94 56.49L466.23 69H457.545ZM449.13 51.63H453.9C455.31 51.63 456.36 51.285 457.05 50.595C457.77 49.905 458.13 48.93 458.13 47.67C458.13 46.47 457.77 45.525 457.05 44.835C456.36 44.145 455.31 43.8 453.9 43.8H449.13V51.63ZM168.635 121.16C168.635 118.04 169.31 115.265 170.66 112.835C172.01 110.375 173.885 108.47 176.285 107.12C178.715 105.74 181.46 105.05 184.52 105.05C188.27 105.05 191.48 106.04 194.15 108.02C196.82 110 198.605 112.7 199.505 116.12H191.045C190.415 114.8 189.515 113.795 188.345 113.105C187.205 112.415 185.9 112.07 184.43 112.07C182.06 112.07 180.14 112.895 178.67 114.545C177.2 116.195 176.465 118.4 176.465 121.16C176.465 123.92 177.2 126.125 178.67 127.775C180.14 129.425 182.06 130.25 184.43 130.25C185.9 130.25 187.205 129.905 188.345 129.215C189.515 128.525 190.415 127.52 191.045 126.2H199.505C198.605 129.62 196.82 132.32 194.15 134.3C191.48 136.25 188.27 137.225 184.52 137.225C181.46 137.225 178.715 136.55 176.285 135.2C173.885 133.82 172.01 131.915 170.66 129.485C169.31 127.055 168.635 124.28 168.635 121.16ZM223.883 131.42H212.093L210.203 137H202.148L213.578 105.41H222.488L233.918 137H225.773L223.883 131.42ZM221.903 125.48L217.988 113.915L214.118 125.48H221.903ZM245.091 131.06H255.171V137H237.396V105.41H245.091V131.06ZM257.537 121.16C257.537 118.04 258.212 115.265 259.562 112.835C260.912 110.375 262.787 108.47 265.187 107.12C267.617 105.74 270.362 105.05 273.422 105.05C277.172 105.05 280.382 106.04 283.052 108.02C285.722 110 287.507 112.7 288.407 116.12H279.947C279.317 114.8 278.417 113.795 277.247 113.105C276.107 112.415 274.802 112.07 273.332 112.07C270.962 112.07 269.042 112.895 267.572 114.545C266.102 116.195 265.367 118.4 265.367 121.16C265.367 123.92 266.102 126.125 267.572 127.775C269.042 129.425 270.962 130.25 273.332 130.25C274.802 130.25 276.107 129.905 277.247 129.215C278.417 128.525 279.317 127.52 279.947 126.2H288.407C287.507 129.62 285.722 132.32 283.052 134.3C280.382 136.25 277.172 137.225 273.422 137.225C270.362 137.225 267.617 136.55 265.187 135.2C262.787 133.82 260.912 131.915 259.562 129.485C258.212 127.055 257.537 124.28 257.537 121.16ZM300.679 105.41V124.31C300.679 126.2 301.144 127.655 302.074 128.675C303.004 129.695 304.369 130.205 306.169 130.205C307.969 130.205 309.349 129.695 310.309 128.675C311.269 127.655 311.749 126.2 311.749 124.31V105.41H319.444V124.265C319.444 127.085 318.844 129.47 317.644 131.42C316.444 133.37 314.824 134.84 312.784 135.83C310.774 136.82 308.524 137.315 306.034 137.315C303.544 137.315 301.309 136.835 299.329 135.875C297.379 134.885 295.834 133.415 294.694 131.465C293.554 129.485 292.984 127.085 292.984 124.265V105.41H300.679ZM332.543 131.06H342.623V137H324.848V105.41H332.543V131.06ZM365.958 131.42H354.168L352.278 137H344.223L355.653 105.41H364.563L375.993 137H367.848L365.958 131.42ZM363.978 125.48L360.063 113.915L356.193 125.48H363.978ZM402.197 105.41V111.575H393.827V137H386.132V111.575H377.762V105.41H402.197ZM420.999 137.315C418.029 137.315 415.299 136.625 412.809 135.245C410.349 133.865 408.384 131.945 406.914 129.485C405.474 126.995 404.754 124.205 404.754 121.115C404.754 118.025 405.474 115.25 406.914 112.79C408.384 110.33 410.349 108.41 412.809 107.03C415.299 105.65 418.029 104.96 420.999 104.96C423.969 104.96 426.684 105.65 429.144 107.03C431.634 108.41 433.584 110.33 434.994 112.79C436.434 115.25 437.154 118.025 437.154 121.115C437.154 124.205 436.434 126.995 434.994 129.485C433.554 131.945 431.604 133.865 429.144 135.245C426.684 136.625 423.969 137.315 420.999 137.315ZM420.999 130.295C423.519 130.295 425.529 129.455 427.029 127.775C428.559 126.095 429.324 123.875 429.324 121.115C429.324 118.325 428.559 116.105 427.029 114.455C425.529 112.775 423.519 111.935 420.999 111.935C418.449 111.935 416.409 112.76 414.879 114.41C413.379 116.06 412.629 118.295 412.629 121.115C412.629 123.905 413.379 126.14 414.879 127.82C416.409 129.47 418.449 130.295 420.999 130.295ZM457.545 137L450.975 125.075H449.13V137H441.435V105.41H454.35C456.84 105.41 458.955 105.845 460.695 106.715C462.465 107.585 463.785 108.785 464.655 110.315C465.525 111.815 465.96 113.495 465.96 115.355C465.96 117.455 465.36 119.33 464.16 120.98C462.99 122.63 461.25 123.8 458.94 124.49L466.23 137H457.545ZM449.13 119.63H453.9C455.31 119.63 456.36 119.285 457.05 118.595C457.77 117.905 458.13 116.93 458.13 115.67C458.13 114.47 457.77 113.525 457.05 112.835C456.36 112.145 455.31 111.8 453.9 111.8H449.13V119.63Z" fill="black"/>
<path d="M50.3323 56.4648L40 59.8095" stroke="black" stroke-width="6" stroke-miterlimit="10"/>
<path d="M57.4058 34.7725L51.0225 26" stroke="black" stroke-width="6" stroke-miterlimit="10"/>
<path d="M80.2939 34.7725L86.6773 26" stroke="black" stroke-width="6" stroke-miterlimit="10"/>
<path d="M87.3674 56.4648L97.6997 59.8095" stroke="black" stroke-width="6" stroke-miterlimit="10"/>
<path d="M121.086 89.0704H75.6934C75.424 89.073 75.1568 89.0226 74.907 88.9221C74.6572 88.8217 74.4296 88.6731 74.2374 88.485C74.0452 88.2969 73.892 88.0729 73.7866 87.8257C73.6812 87.5785 73.6256 87.3131 73.6231 87.0445V75.6919H67.8723V146.292C67.8774 146.831 68.0957 147.347 68.4798 147.726C68.8639 148.105 69.3827 148.318 69.9234 148.318H121.086C121.625 148.318 122.142 148.105 122.523 147.725C122.904 147.345 123.118 146.83 123.118 146.292V91.211C123.134 90.9355 123.093 90.6597 122.998 90.4005C122.903 90.1413 122.756 89.9042 122.565 89.7038C122.375 89.5033 122.146 89.3438 121.891 89.2348C121.637 89.1259 121.363 89.07 121.086 89.0704ZM81.08 141.342C80.2986 141.327 79.5391 141.083 78.8967 140.639C78.2544 140.195 77.7577 139.572 77.4691 138.848C77.1805 138.124 77.1128 137.331 77.2744 136.568C77.4361 135.806 77.8199 135.108 78.3778 134.563C78.9357 134.017 79.6427 133.648 80.4103 133.501C81.1779 133.355 81.9717 133.437 82.6923 133.739C83.413 134.04 84.0282 134.547 84.4609 135.196C84.8937 135.845 85.1246 136.607 85.1247 137.386C85.1248 137.912 85.0197 138.433 84.8155 138.918C84.6113 139.403 84.3121 139.843 83.9355 140.211C83.5589 140.579 83.1124 140.869 82.622 141.063C82.1317 141.258 81.6075 141.352 81.08 141.342ZM81.08 130.295C80.2986 130.28 79.5391 130.036 78.8967 129.592C78.2544 129.148 77.7577 128.525 77.4691 127.801C77.1805 127.077 77.1128 126.284 77.2744 125.522C77.4361 124.759 77.8199 124.062 78.3778 123.516C78.9357 122.97 79.6427 122.601 80.4103 122.454C81.1779 122.308 81.9717 122.391 82.6923 122.692C83.413 122.994 84.0282 123.501 84.4609 124.149C84.8937 124.798 85.1246 125.56 85.1247 126.339C85.1248 126.865 85.0197 127.386 84.8155 127.871C84.6113 128.356 84.3121 128.796 83.9355 129.164C83.5589 129.532 83.1124 129.822 82.622 130.017C82.1317 130.211 81.6075 130.306 81.08 130.295ZM81.08 119.23C80.2978 119.214 79.5376 118.969 78.8948 118.525C78.252 118.08 77.7554 117.456 77.4674 116.731C77.1793 116.005 77.1128 115.211 77.276 114.449C77.4392 113.686 77.8249 112.988 78.3847 112.443C78.9445 111.898 79.6533 111.531 80.4221 111.386C81.1909 111.242 81.9854 111.327 82.7056 111.632C83.4259 111.936 84.0398 112.446 84.4702 113.097C84.9006 113.749 85.1283 114.512 85.1247 115.292C85.1223 115.817 85.0153 116.336 84.8099 116.818C84.6046 117.301 84.3051 117.738 83.9287 118.105C83.5523 118.471 83.1067 118.759 82.6176 118.952C82.1286 119.145 81.6059 119.24 81.08 119.23ZM96.2813 141.342C95.4965 141.342 94.7293 141.11 94.0767 140.676C93.4242 140.241 92.9156 139.623 92.6153 138.9C92.3149 138.177 92.2363 137.382 92.3895 136.614C92.5426 135.847 92.9205 135.142 93.4754 134.589C94.0304 134.035 94.7374 133.659 95.5071 133.506C96.2769 133.353 97.0747 133.432 97.7998 133.731C98.5248 134.03 99.1446 134.538 99.5806 135.188C100.017 135.839 100.249 136.604 100.249 137.386C100.249 138.435 99.8312 139.442 99.0871 140.184C98.3429 140.926 97.3337 141.342 96.2813 141.342ZM96.2813 130.295C95.4965 130.295 94.7293 130.063 94.0767 129.629C93.4242 129.194 92.9156 128.576 92.6153 127.853C92.3149 127.13 92.2363 126.335 92.3895 125.567C92.5426 124.8 92.9205 124.095 93.4754 123.542C94.0304 122.988 94.7374 122.612 95.5071 122.459C96.2769 122.306 97.0747 122.385 97.7998 122.684C98.5248 122.984 99.1446 123.491 99.5806 124.141C100.017 124.792 100.249 125.557 100.249 126.339C100.249 126.859 100.147 127.373 99.9473 127.853C99.7478 128.333 99.4556 128.769 99.0871 129.137C98.7186 129.504 98.2812 129.796 97.7998 129.994C97.3183 130.193 96.8024 130.295 96.2813 130.295ZM96.2813 119.23C95.4956 119.229 94.7277 118.997 94.0748 118.561C93.4218 118.126 92.9132 117.507 92.6135 116.783C92.3137 116.059 92.2362 115.262 92.3909 114.494C92.5456 113.726 92.9254 113.022 93.4823 112.469C94.0391 111.917 94.748 111.541 95.5189 111.391C96.2899 111.24 97.0884 111.321 97.8131 111.624C98.5378 111.926 99.1562 112.436 99.5899 113.089C100.024 113.742 100.253 114.509 100.249 115.292C100.249 115.811 100.147 116.325 99.9469 116.803C99.7473 117.282 99.4547 117.717 99.0859 118.083C98.7172 118.449 98.2796 118.739 97.7983 118.935C97.317 119.132 96.8014 119.232 96.2813 119.23ZM111.502 141.342C110.716 141.346 109.947 141.117 109.292 140.685C108.637 140.252 108.125 139.636 107.822 138.913C107.519 138.191 107.437 137.395 107.588 136.626C107.739 135.857 108.116 135.151 108.67 134.595C109.224 134.04 109.931 133.662 110.701 133.507C111.472 133.353 112.27 133.43 112.997 133.729C113.723 134.028 114.344 134.535 114.78 135.186C115.217 135.837 115.451 136.603 115.451 137.386C115.451 138.432 115.035 139.435 114.295 140.177C113.555 140.918 112.551 141.337 111.502 141.342ZM111.502 130.295C110.716 130.299 109.947 130.07 109.292 129.638C108.637 129.206 108.125 128.589 107.822 127.867C107.519 127.144 107.437 126.348 107.588 125.579C107.739 124.811 108.116 124.104 108.67 123.549C109.224 122.993 109.931 122.615 110.701 122.46C111.472 122.306 112.27 122.384 112.997 122.682C113.723 122.981 114.344 123.488 114.78 124.139C115.217 124.79 115.451 125.556 115.451 126.339C115.451 127.385 115.035 128.389 114.295 129.13C113.555 129.871 112.551 130.29 111.502 130.295ZM111.502 119.23C110.715 119.233 109.945 119.004 109.29 118.571C108.635 118.137 108.123 117.52 107.82 116.796C107.518 116.072 107.437 115.275 107.59 114.506C107.742 113.737 108.121 113.03 108.677 112.476C109.233 111.921 109.942 111.544 110.713 111.392C111.485 111.24 112.284 111.32 113.01 111.622C113.736 111.924 114.355 112.434 114.79 113.087C115.224 113.741 115.454 114.508 115.451 115.292C115.446 116.335 115.028 117.334 114.288 118.071C113.549 118.808 112.547 119.224 111.502 119.23ZM119.284 101.818C119.287 102.153 119.223 102.484 119.096 102.794C118.968 103.104 118.781 103.385 118.543 103.621C118.306 103.858 118.024 104.045 117.714 104.172C117.403 104.299 117.07 104.363 116.735 104.36H77.7445C77.0683 104.36 76.4199 104.092 75.9417 103.616C75.4636 103.139 75.195 102.492 75.195 101.818V97.346C75.2 96.6734 75.4702 96.0298 75.9473 95.5541C76.4243 95.0785 77.0699 94.8091 77.7445 94.8041H116.735C117.411 94.8041 118.06 95.0719 118.538 95.5486C119.016 96.0253 119.284 96.6719 119.284 97.346V101.818Z" fill="black"/>
<path d="M68.8498 64.4539C76.5995 64.4539 82.8818 58.1903 82.8818 50.4638C82.8818 42.7372 76.5995 36.4736 68.8498 36.4736C61.1002 36.4736 54.8179 42.7372 54.8179 50.4638C54.8179 58.1903 61.1002 64.4539 68.8498 64.4539Z" stroke="black" stroke-width="6" stroke-miterlimit="10"/>
</svg>
