<svg width="112" height="177" viewBox="0 0 112 177" fill="none" xmlns="http://www.w3.org/2000/svg">
<path d="M4.2475 0.548828C1.78842 0.548828 0 2.31102 0 4.73404V172.804C0 175.227 1.78842 176.989 4.2475 176.989H107.752C110.212 176.989 112 175.227 112 172.804V4.73404C112 2.31102 110.212 0.548828 107.752 0.548828L4.2475 0.548828ZM22.3553 22.5763H89.4212V132.714H22.3553V22.5763ZM55.8882 143.727C62.1477 143.727 67.0659 148.573 67.0659 154.741C67.0659 160.909 62.1477 165.755 55.8882 165.755C49.6287 165.755 44.7106 160.909 44.7106 154.741C44.7106 148.573 49.6287 143.727 55.8882 143.727Z" fill="black"/>
</svg>
