<svg width="99" height="99" viewBox="0 0 99 99" fill="none" xmlns="http://www.w3.org/2000/svg">
<path d="M55.1313 70.4453H49.0056V64.3196C49.0029 61.8835 48.034 59.5479 46.3114 57.8253C44.5888 56.1027 42.2532 55.1337 39.8171 55.1311H27.5657C25.1296 55.1337 22.794 56.1027 21.0714 57.8253C19.3488 59.5479 18.3798 61.8835 18.3772 64.3196V70.4453H12.2515V64.3196C12.2562 60.2595 13.8712 56.367 16.7422 53.4961C19.6131 50.6251 23.5056 49.0102 27.5657 49.0054H39.8171C43.8772 49.0102 47.7696 50.6251 50.6406 53.4961C53.5115 56.367 55.1265 60.2595 55.1313 64.3196V70.4453Z" fill="#FED438"/>
<path d="M33.6912 18.3769C35.5085 18.3769 37.285 18.9158 38.7961 19.9255C40.3071 20.9351 41.4848 22.3702 42.1803 24.0491C42.8757 25.7281 43.0577 27.5756 42.7032 29.358C42.3486 31.1404 41.4735 32.7777 40.1885 34.0627C38.9034 35.3478 37.2662 36.2229 35.4838 36.5774C33.7014 36.932 31.8539 36.75 30.1749 36.0545C28.4959 35.3591 27.0608 34.1814 26.0512 32.6703C25.0415 31.1593 24.5027 29.3828 24.5027 27.5654C24.5027 25.1285 25.4707 22.7914 27.1939 21.0682C28.9171 19.345 31.2542 18.3769 33.6912 18.3769ZM33.6912 12.2512C30.6623 12.2512 27.7015 13.1494 25.1831 14.8321C22.6646 16.5149 20.7018 18.9066 19.5427 21.7049C18.3836 24.5033 18.0803 27.5824 18.6712 30.5531C19.2621 33.5238 20.7207 36.2525 22.8624 38.3942C25.0041 40.536 27.7329 41.9945 30.7035 42.5854C33.6742 43.1763 36.7534 42.873 39.5517 41.7139C42.35 40.5549 44.7418 38.592 46.4245 36.0736C48.1072 33.5552 49.0054 30.5943 49.0054 27.5654C49.0054 23.5039 47.392 19.6086 44.52 16.7367C41.648 13.8647 37.7528 12.2512 33.6912 12.2512Z" fill="#FED438"/>
<path d="M6.12598 79.634H91.8857V85.7597H6.12598V79.634Z" fill="#FED438"/>
<path d="M83.6248 24.5029C82.5353 24.5029 81.4568 24.7213 80.4531 25.1453C79.4494 25.5692 78.5409 26.19 77.7812 26.971L76.5711 28.2126L75.361 26.971C74.6013 26.19 73.6928 25.5692 72.6892 25.1453C71.6855 24.7214 70.607 24.503 69.5175 24.503C68.428 24.503 67.3496 24.7214 66.3459 25.1453C65.3422 25.5692 64.4337 26.19 63.6741 26.971C62.1238 28.5704 61.2568 30.7105 61.2568 32.938C61.2568 35.1655 62.1238 37.3056 63.6741 38.905L76.5711 52.0685L89.4681 38.905C91.0184 37.3056 91.8854 35.1655 91.8854 32.938C91.8854 30.7105 91.0184 28.5704 89.4681 26.971C88.7085 26.19 87.8 25.5692 86.7964 25.1453C85.7927 24.7214 84.7143 24.503 83.6248 24.5029Z" fill="#FED438"/>
</svg>
