<svg width="56" height="56" viewBox="0 0 56 56" fill="none" xmlns="http://www.w3.org/2000/svg">
<g clip-path="url(#clip0_36_72)">
<path d="M55.9999 28.1715C55.9999 12.6105 43.4629 -0.00354004 27.9999 -0.00354004C12.5299 -4.0039e-05 -0.00708008 12.6105 -0.00708008 28.175C-0.00708008 42.2345 10.2339 53.8895 23.6179 56.0035V36.316H16.5129V28.175H23.6249V21.9625C23.6249 14.903 27.8074 11.004 34.2019 11.004C37.2679 11.004 40.4704 11.5535 40.4704 11.5535V18.4835H36.9389C33.4634 18.4835 32.3784 20.657 32.3784 22.8865V28.1715H40.1414L38.9024 36.3125H32.3749V56C45.7589 53.886 55.9999 42.231 55.9999 28.1715Z" fill="#FED438"/>
</g>
<defs>
<clipPath id="clip0_36_72">
<rect width="56" height="56" fill="white"/>
</clipPath>
</defs>
</svg>
