<svg width="1156" height="351" viewBox="0 0 1156 351" fill="none" xmlns="http://www.w3.org/2000/svg">
<path d="M97.576 53.276C95.7213 50.28 93.082 47.9973 89.658 46.428C86.234 44.716 82.0967 43.86 77.246 43.86C68.1153 43.86 61.0533 46.856 56.06 52.848C51.0667 58.6973 48.57 66.758 48.57 77.03C48.57 88.8713 51.352 97.7167 56.916 103.566C62.48 109.415 71.04 112.34 82.596 112.34C93.5813 112.34 102.427 107.917 109.132 99.072H71.254V65.474H148.508V112.982C141.945 124.253 132.886 133.954 121.33 142.086C109.774 150.075 95.1507 154.07 77.46 154.07C61.7667 154.07 48.0707 150.86 36.372 144.44C24.816 137.877 15.8993 128.747 9.622 117.048C3.48733 105.349 0.42 92.01 0.42 77.03C0.42 62.05 3.48733 48.7107 9.622 37.012C15.8993 25.3133 24.816 16.254 36.372 9.83399C47.928 3.27133 61.4813 -0.0100071 77.032 -0.0100071C96.8627 -0.0100071 112.984 4.76933 125.396 14.328C137.951 23.8867 145.369 36.8693 147.652 53.276H97.576ZM213.126 39.366V57.984H260.206V93.722H213.126V115.122H266.626V153H165.618V1.488H266.626V39.366H213.126ZM403.514 1.488V39.152H363.282V153H315.774V39.152H275.97V1.488H403.514Z" fill="white"/>
<path d="M52.208 197.488V349H4.7V197.488H52.208ZM218.971 349H171.463L121.173 272.816V349H73.6648V197.488H121.173L171.463 274.956V197.488H218.971V349ZM395.782 197.488V235.152H355.55V349H308.042V235.152H268.238V197.488H395.782ZM482.497 350.498C468.23 350.498 455.105 347.145 443.121 340.44C431.279 333.735 421.863 324.461 414.873 312.62C407.882 300.779 404.387 287.439 404.387 272.602C404.387 257.765 407.882 244.425 414.873 232.584C421.863 220.743 431.279 211.541 443.121 204.978C455.105 198.273 468.23 194.92 482.497 194.92C496.763 194.92 509.817 198.273 521.659 204.978C533.5 211.541 542.845 220.743 549.693 232.584C556.683 244.425 560.179 257.765 560.179 272.602C560.179 287.439 556.683 300.779 549.693 312.62C542.845 324.461 533.429 333.735 521.445 340.44C509.603 347.145 496.621 350.498 482.497 350.498ZM482.497 306.2C491.913 306.2 499.189 303.204 504.325 297.212C509.461 291.077 512.029 282.874 512.029 272.602C512.029 262.187 509.461 253.984 504.325 247.992C499.189 241.857 491.913 238.79 482.497 238.79C472.938 238.79 465.591 241.857 460.455 247.992C455.319 253.984 452.751 262.187 452.751 272.602C452.751 282.874 455.319 291.077 460.455 297.212C465.591 303.204 472.938 306.2 482.497 306.2ZM623.755 197.488V282.874C623.755 289.865 625.253 295.429 628.249 299.566C631.388 303.561 636.381 305.558 643.229 305.558C650.077 305.558 655.142 303.561 658.423 299.566C661.705 295.429 663.345 289.865 663.345 282.874V197.488H710.639V282.874C710.639 297.283 707.643 309.624 701.651 319.896C695.659 330.025 687.456 337.658 677.041 342.794C666.627 347.93 654.999 350.498 642.159 350.498C629.319 350.498 617.906 347.93 607.919 342.794C598.075 337.658 590.371 330.025 584.807 319.896C579.243 309.767 576.461 297.426 576.461 282.874V197.488H623.755ZM726.85 273.03C726.85 258.05 729.846 244.711 735.838 233.012C741.972 221.313 750.675 212.254 761.946 205.834C773.216 199.271 786.484 195.99 801.75 195.99C814.875 195.99 826.574 198.487 836.846 203.48C847.26 208.331 855.678 215.25 862.098 224.238C868.66 233.226 873.012 243.712 875.152 255.696H825.076C822.793 250.703 819.512 246.851 815.232 244.14C811.094 241.287 806.315 239.86 800.894 239.86C792.904 239.86 786.556 242.856 781.848 248.848C777.282 254.84 775 262.901 775 273.03C775 283.159 777.282 291.22 781.848 297.212C786.556 303.204 792.904 306.2 800.894 306.2C806.315 306.2 811.094 304.845 815.232 302.134C819.512 299.281 822.793 295.357 825.076 290.364H875.152C873.012 302.348 868.66 312.834 862.098 321.822C855.678 330.81 847.26 337.801 836.846 342.794C826.574 347.645 814.875 350.07 801.75 350.07C786.484 350.07 773.216 346.86 761.946 340.44C750.675 333.877 741.972 324.747 735.838 313.048C729.846 301.349 726.85 288.01 726.85 273.03ZM1032.43 197.488V349H984.919V289.936H939.765V349H892.257V197.488H939.765V252.058H984.919V197.488H1032.43ZM1154.15 187.43L1148.59 288.866H1107.93L1102.36 187.43H1154.15ZM1128.26 350.712C1119.98 350.712 1113.35 348.501 1108.35 344.078C1103.36 339.655 1100.86 334.091 1100.86 327.386C1100.86 320.538 1103.36 314.903 1108.35 310.48C1113.35 305.915 1119.98 303.632 1128.26 303.632C1136.39 303.632 1142.95 305.915 1147.94 310.48C1152.94 314.903 1155.43 320.538 1155.43 327.386C1155.43 334.091 1152.94 339.655 1147.94 344.078C1142.95 348.501 1136.39 350.712 1128.26 350.712Z" fill="black"/>
</svg>
