<svg width="1258" height="386" viewBox="0 0 1258 386" fill="none" xmlns="http://www.w3.org/2000/svg">
<path d="M105.772 58.422C103.753 55.16 100.879 52.6747 97.151 50.966C93.423 49.102 88.9183 48.17 83.637 48.17C73.6957 48.17 66.0067 51.432 60.57 57.956C55.1333 64.3247 52.415 73.101 52.415 84.285C52.415 97.1777 55.444 106.808 61.502 113.177C67.56 119.546 76.88 122.73 89.462 122.73C101.423 122.73 111.053 117.915 118.354 108.284H77.113V71.703H161.226V123.429C154.081 135.7 144.217 146.263 131.635 155.117C119.053 163.816 103.131 168.165 83.87 168.165C66.7833 168.165 51.8713 164.67 39.134 157.68C26.552 150.535 16.8437 140.593 10.009 127.856C3.32967 115.119 -0.00999972 100.595 -0.00999972 84.285C-0.00999972 67.975 3.32967 53.4513 10.009 40.714C16.8437 27.9767 26.552 18.113 39.134 11.123C51.716 3.97766 66.4727 0.404992 83.404 0.404992C104.995 0.404992 122.548 5.60866 136.062 16.016C149.731 26.4233 157.809 40.5587 160.294 58.422H105.772ZM231.581 43.277V63.548H282.841V102.459H231.581V125.759H289.831V167H179.855V2.036H289.831V43.277H231.581ZM438.873 2.036V43.044H395.069V167H343.343V43.044H300.005V2.036H438.873Z" fill="white"/>
<path d="M56.376 219.036V384H4.65V219.036H56.376ZM237.945 384H186.219L131.464 301.052V384H79.7379V219.036H131.464L186.219 303.382V219.036H237.945V384ZM430.454 219.036V260.044H386.65V384H334.924V260.044H291.586V219.036H430.454ZM524.868 385.631C509.335 385.631 495.044 381.981 481.996 374.68C469.103 367.379 458.851 357.283 451.24 344.39C443.629 331.497 439.823 316.974 439.823 300.819C439.823 284.664 443.629 270.141 451.24 257.248C458.851 244.355 469.103 234.336 481.996 227.191C495.044 219.89 509.335 216.24 524.868 216.24C540.401 216.24 554.614 219.89 567.507 227.191C580.4 234.336 590.574 244.355 598.03 257.248C605.641 270.141 609.447 284.664 609.447 300.819C609.447 316.974 605.641 331.497 598.03 344.39C590.574 357.283 580.322 367.379 567.274 374.68C554.381 381.981 540.246 385.631 524.868 385.631ZM524.868 337.4C535.12 337.4 543.042 334.138 548.634 327.614C554.226 320.935 557.022 312.003 557.022 300.819C557.022 289.48 554.226 280.548 548.634 274.024C543.042 267.345 535.12 264.005 524.868 264.005C514.461 264.005 506.461 267.345 500.869 274.024C495.277 280.548 492.481 289.48 492.481 300.819C492.481 312.003 495.277 320.935 500.869 327.614C506.461 334.138 514.461 337.4 524.868 337.4ZM678.668 219.036V312.003C678.668 319.614 680.299 325.672 683.561 330.177C686.978 334.526 692.415 336.701 699.871 336.701C707.327 336.701 712.841 334.526 716.414 330.177C719.987 325.672 721.773 319.614 721.773 312.003V219.036H773.266V312.003C773.266 327.692 770.004 341.128 763.48 352.312C756.956 363.341 748.024 371.651 736.685 377.243C725.346 382.835 712.686 385.631 698.706 385.631C684.726 385.631 672.299 382.835 661.426 377.243C650.708 371.651 642.32 363.341 636.262 352.312C630.204 341.283 627.175 327.847 627.175 312.003V219.036H678.668ZM790.916 301.285C790.916 284.975 794.178 270.451 800.702 257.714C807.381 244.977 816.856 235.113 829.128 228.123C841.399 220.978 855.845 217.405 872.466 217.405C886.756 217.405 899.494 220.123 910.678 225.56C922.017 230.841 931.182 238.375 938.172 248.161C945.317 257.947 950.055 269.364 952.385 282.412H897.863C895.377 276.975 891.805 272.781 887.145 269.83C882.64 266.723 877.436 265.17 871.534 265.17C862.835 265.17 855.923 268.432 850.797 274.956C845.826 281.48 843.341 290.256 843.341 301.285C843.341 312.314 845.826 321.09 850.797 327.614C855.923 334.138 862.835 337.4 871.534 337.4C877.436 337.4 882.64 335.924 887.145 332.973C891.805 329.866 895.377 325.595 897.863 320.158H952.385C950.055 333.206 945.317 344.623 938.172 354.409C931.182 364.195 922.017 371.806 910.678 377.243C899.494 382.524 886.756 385.165 872.466 385.165C855.845 385.165 841.399 381.67 829.128 374.68C816.856 367.535 807.381 357.593 800.702 344.856C794.178 332.119 790.916 317.595 790.916 301.285ZM1123.62 219.036V384H1071.9V319.692H1022.73V384H971.008V219.036H1022.73V278.451H1071.9V219.036H1123.62ZM1256.15 208.085L1250.1 318.527H1205.83L1199.77 208.085H1256.15ZM1227.96 385.864C1218.95 385.864 1211.73 383.456 1206.29 378.641C1200.86 373.826 1198.14 367.768 1198.14 360.467C1198.14 353.011 1200.86 346.875 1206.29 342.06C1211.73 337.089 1218.95 334.604 1227.96 334.604C1236.82 334.604 1243.96 337.089 1249.4 342.06C1254.83 346.875 1257.55 353.011 1257.55 360.467C1257.55 367.768 1254.83 373.826 1249.4 378.641C1243.96 383.456 1236.82 385.864 1227.96 385.864Z" fill="#FED438"/>
</svg>
