<svg width="74" height="74" viewBox="0 0 74 74" fill="none" xmlns="http://www.w3.org/2000/svg">
<path d="M41.9642 37.7493C41.9455 38.726 41.6373 39.6753 41.0786 40.4767C40.5199 41.2781 39.7358 41.8955 38.8258 42.2508C37.9158 42.6061 36.9207 42.6832 35.9668 42.4723C35.0129 42.2614 34.1431 41.7721 33.4676 41.0663C32.7922 40.3605 32.3414 39.4701 32.1726 38.5078C32.0038 37.5456 32.1244 36.5549 32.5193 35.6613C32.9142 34.7677 33.5654 34.0115 34.3906 33.4885C35.2157 32.9655 36.1775 32.6992 37.1542 32.7234C38.4519 32.7715 39.68 33.3231 40.5779 34.2614C41.4758 35.1996 41.9731 36.4506 41.9642 37.7493Z" fill="#FED438"/>
<path d="M45.5193 22.3018H28.7922C27.1371 22.3018 25.5497 22.9593 24.3794 24.1296C23.209 25.3 22.5515 26.8873 22.5515 28.5424V45.6457C22.5515 46.4652 22.7129 47.2767 23.0266 48.0339C23.3402 48.791 23.7999 49.479 24.3794 50.0585C24.9589 50.638 25.6468 51.0977 26.404 51.4113C27.1611 51.7249 27.9726 51.8863 28.7922 51.8863H45.5193C46.3388 51.8863 47.1503 51.7249 47.9075 51.4113C48.6646 51.0977 49.3526 50.638 49.9321 50.0585C50.5116 49.479 50.9713 48.791 51.2849 48.0339C51.5985 47.2767 51.7599 46.4652 51.7599 45.6457V28.5733C51.7632 27.7514 51.6042 26.9369 51.2921 26.1765C50.98 25.4162 50.5209 24.7249 49.9412 24.1423C49.3615 23.5597 48.6724 23.0972 47.9136 22.7814C47.1548 22.4656 46.3412 22.3026 45.5193 22.3018ZM37.1542 46.1143C35.4983 46.1517 33.8689 45.6949 32.4738 44.8021C31.0787 43.9094 29.9813 42.6212 29.3216 41.102C28.6618 39.5827 28.4697 37.9014 28.7697 36.2725C29.0697 34.6436 29.8483 33.1411 31.006 31.9566C32.1637 30.7722 33.6481 29.9595 35.2697 29.6224C36.8914 29.2853 38.5766 29.439 40.1105 30.0639C41.6444 30.6888 42.9573 31.7565 43.8816 33.1309C44.806 34.5052 45.2999 36.1238 45.3003 37.7801C45.313 38.8623 45.1122 39.9364 44.7096 40.941C44.307 41.9456 43.7105 42.861 42.954 43.6349C42.1975 44.4089 41.2959 45.0262 40.3007 45.4517C39.3056 45.8771 38.2364 46.1023 37.1542 46.1143ZM46.2068 29.4489C46.0034 29.449 45.802 29.4084 45.6144 29.3296C45.4268 29.2509 45.2568 29.1354 45.1144 28.9901C44.972 28.8449 44.86 28.6726 44.785 28.4835C44.7099 28.2944 44.6734 28.0922 44.6775 27.8888C44.6775 27.475 44.8419 27.0781 45.1345 26.7856C45.4271 26.493 45.8239 26.3286 46.2377 26.3286C46.6515 26.3286 47.0483 26.493 47.3409 26.7856C47.6335 27.0781 47.7978 27.475 47.7978 27.8888C47.804 28.109 47.7624 28.328 47.6761 28.5307C47.5897 28.7334 47.4605 28.9151 47.2974 29.0633C47.1343 29.2114 46.9412 29.3226 46.7311 29.3892C46.521 29.4557 46.2991 29.4761 46.0804 29.4489H46.2068Z" fill="#FED438"/>
<path d="M37.1541 6.16665C28.9766 6.12576 21.1178 9.33505 15.3065 15.0885C9.49525 20.842 6.20753 28.6683 6.16665 36.8458C6.12576 45.0233 9.33505 52.8821 15.0885 58.6934C20.842 64.5047 28.6683 67.7924 36.8458 67.8333C40.8949 67.8536 44.9083 67.0761 48.657 65.5453C52.4056 64.0144 55.816 61.7603 58.6934 58.9114C61.5709 56.0626 63.859 52.6749 65.4273 48.9418C66.9955 45.2087 67.8131 41.2032 67.8333 37.1541C67.8536 33.1051 67.0761 29.0916 65.5453 25.343C64.0144 21.5944 61.7603 18.184 58.9114 15.3065C56.0626 12.4291 52.6749 10.1409 48.9418 8.57269C45.2087 7.00447 41.2032 6.18689 37.1541 6.16665ZM55.8792 45.3311C55.8878 46.7144 55.6217 48.0857 55.0964 49.3653C54.5711 50.645 53.7971 51.8077 52.819 52.786C51.841 53.7643 50.6786 54.5387 49.399 55.0644C48.1195 55.5901 46.7483 55.8566 45.3651 55.8484H28.9494C27.5663 55.8562 26.1955 55.5895 24.9162 55.0639C23.6368 54.5383 22.4745 53.7642 21.4964 52.7864C20.5182 51.8085 19.7438 50.6464 19.2178 49.3672C18.6918 48.0881 18.4248 46.7173 18.4321 45.3342V28.9155C18.4236 27.5322 18.6896 26.161 19.2149 24.8813C19.7402 23.6016 20.5143 22.4389 21.4923 21.4606C22.4703 20.4823 23.6328 19.7079 24.9123 19.1822C26.1919 18.6565 27.563 18.39 28.9463 18.3982H45.3651C46.7481 18.39 48.119 18.6564 49.3983 19.1819C50.6777 19.7074 51.84 20.4815 52.8179 21.4595C53.7959 22.4375 54.5701 23.5998 55.0956 24.8791C55.621 26.1585 55.8874 27.5294 55.8792 28.9124V45.3311Z" fill="#FED438"/>
</svg>
