<svg width="50" height="50" viewBox="0 0 50 50" fill="none" xmlns="http://www.w3.org/2000/svg">
<path d="M17.9336 17.9336H32.7336V32.7336H17.9336V17.9336Z" fill="#FED438"/>
<path d="M45.0667 10.5332C45.0667 7.81244 42.8541 5.59984 40.1334 5.59984H35.2001V0.666504H30.2667V5.59984H20.4001V0.666504H15.4667V5.59984H10.5334C7.81268 5.59984 5.60008 7.81244 5.60008 10.5332V15.4665H0.666748V20.3998H5.60008V30.2665H0.666748V35.1998H5.60008V40.1332C5.60008 42.8539 7.81268 45.0665 10.5334 45.0665H15.4667V49.9998H20.4001V45.0665H30.2667V49.9998H35.2001V45.0665H40.1334C42.8541 45.0665 45.0667 42.8539 45.0667 40.1332V35.1998H50.0001V30.2665H45.0667V20.3998H50.0001V15.4665H45.0667V10.5332ZM10.5334 40.1332V10.5332H40.1334L40.1384 40.1332H10.5334Z" fill="#FED438"/>
</svg>
