<svg width="100" height="85" viewBox="0 0 100 85" fill="none" xmlns="http://www.w3.org/2000/svg">
<path fill-rule="evenodd" clip-rule="evenodd" d="M70.659 0C72.2792 0 73.5931 1.31228 73.5931 2.93103V14.6552H85.3295V2.93103C85.3295 1.31228 86.6434 0 88.2636 0C89.8838 0 91.1977 1.31228 91.1977 2.93103V14.6552H97.0659C98.6861 14.6552 100 15.9675 100 17.5862V41.0345C100 42.653 98.6861 43.9655 97.0659 43.9655H82.3954V76.2069C82.3954 81.063 78.4543 85 73.5931 85H32.5158C27.6544 85 23.7135 81.063 23.7135 76.2069V63.4973C23.1673 63.274 22.6689 63.0284 22.2263 62.7734C21.5127 62.3619 20.7482 61.812 19.9965 61.1267C18.5588 61.8706 16.8071 62.3548 14.8604 62.322C11.7958 62.2704 8.53121 60.945 5.46965 57.8868C-1.05707 51.367 -0.388212 42.2972 0.694059 38.5736C0.974207 37.6093 1.72874 36.8554 2.69371 36.5758C5.46079 35.7733 12.4826 35.1765 19.2106 38.8983C25.7704 29.1767 36.5639 26.4848 41.5041 26.3595C42.6049 26.3316 43.6295 26.9223 44.1559 27.889C46.6458 32.4612 49.9161 44.0916 43.5169 55.1638C40.2893 60.7475 36.1457 63.4569 32.033 64.2834C31.1964 64.4517 30.3761 64.539 29.5817 64.5601V76.2069C29.5817 77.8254 30.8953 79.1379 32.5158 79.1379H73.5931C75.2133 79.1379 76.5272 77.8254 76.5272 76.2069V43.9655H61.8567C60.2365 43.9655 58.9226 42.653 58.9226 41.0345V17.5862C58.9226 15.9675 60.2365 14.6552 61.8567 14.6552H67.7249V2.93103C67.7249 1.31228 69.0388 0 70.659 0ZM64.7908 20.5172V38.1035H94.1318V20.5172H64.7908ZM16.4824 56.2507C16.3112 55.8632 16.1541 55.461 16.0135 55.0442C14.9645 51.935 14.9068 48.2319 16.4801 44.091C12.5347 41.8739 8.42224 41.6682 5.98752 41.9138C5.58015 45.0688 5.9887 50.1148 9.61911 53.7417C11.7652 55.8854 13.6297 56.4382 14.9593 56.4605C15.5147 56.4699 16.027 56.3878 16.4824 56.2507ZM23.26 43.4807C27.6244 35.9292 35.2571 33.092 39.7818 32.3979C41.4425 36.659 42.7992 44.6813 38.4344 52.2328C35.9386 56.5514 33.1292 58.0837 30.8756 58.5369C28.4908 59.0158 26.3228 58.3669 25.1604 57.6968C23.998 57.0262 22.3513 55.4751 21.5744 53.1725C20.8403 50.9965 20.764 47.7993 23.26 43.4807Z" fill="black"/>
</svg>
