<svg width="92" height="102" viewBox="0 0 92 102" fill="none" xmlns="http://www.w3.org/2000/svg">
<path d="M91.75 73.8751C91.75 75.8067 90.6825 77.4842 89.0559 78.3484L48.8975 100.918C48.0842 101.528 47.0675 101.833 46 101.833C44.9325 101.833 43.9159 101.528 43.1025 100.918L2.9442 78.3484C2.12887 77.9206 1.44654 77.2773 0.971495 76.4885C0.496453 75.6998 0.246908 74.7958 0.250029 73.8751V28.1251C0.250029 26.1934 1.31753 24.5159 2.9442 23.6517L43.1025 1.08175C43.9159 0.471748 44.9325 0.166748 46 0.166748C47.0675 0.166748 48.0842 0.471748 48.8975 1.08175L89.0559 23.6517C90.6825 24.5159 91.75 26.1934 91.75 28.1251V73.8751ZM10.4167 35.7501V66.2501H16.7709V56.0834H20.5834C23.2797 56.0834 25.8657 55.0123 27.7723 53.1057C29.6789 51.199 30.75 48.6131 30.75 45.9167C30.75 43.2204 29.6789 40.6344 27.7723 38.7278C25.8657 36.8212 23.2797 35.7501 20.5834 35.7501H10.4167ZM16.7709 51.0001V40.8334H19.3125C20.6607 40.8334 21.9537 41.369 22.907 42.3223C23.8603 43.2756 24.3959 44.5686 24.3959 45.9167C24.3959 47.2649 23.8603 48.5579 22.907 49.5112C21.9537 50.4645 20.6607 51.0001 19.3125 51.0001H16.7709ZM34.5625 35.7501V66.2501H40.9167V56.0834H44.7292L48.0842 66.2501H54.7942L50.7784 54.1009C53.2692 52.2709 54.8959 49.2717 54.8959 45.9167C54.8959 43.2204 53.8247 40.6344 51.9181 38.7278C50.0115 36.8212 47.4256 35.7501 44.7292 35.7501H34.5625ZM40.9167 51.0001V40.8334H43.4584C44.8065 40.8334 46.0995 41.369 47.0528 42.3223C48.0061 43.2756 48.5417 44.5686 48.5417 45.9167C48.5417 47.2649 48.0061 48.5579 47.0528 49.5112C46.0995 50.4645 44.8065 51.0001 43.4584 51.0001H40.9167ZM71.4167 35.7501C64.4017 35.7501 58.7084 42.5617 58.7084 51.0001C58.7084 59.4384 64.4017 66.2501 71.4167 66.2501C78.4317 66.2501 84.125 59.4384 84.125 51.0001C84.125 42.5617 78.4317 35.7501 71.4167 35.7501ZM71.4167 42.1042C75.28 42.1042 78.4317 46.0692 78.4317 51.0001C78.4317 55.9309 75.28 59.8959 71.4167 59.8959C67.5534 59.8959 64.4525 55.9309 64.4525 51.0001C64.4525 46.0692 67.5534 42.1042 71.4167 42.1042Z" fill="#FED438"/>
</svg>
