<svg width="72" height="99" viewBox="0 0 72 99" fill="none" xmlns="http://www.w3.org/2000/svg">
<path d="M71.9214 35.9607C71.9214 16.019 55.7392 0 35.9607 0C16.1822 0 0 16.1822 0 35.9607C0 49.6911 8.3368 61.7873 19.6152 67.8339L16.3455 98.0729L35.9607 84.9972L55.576 98.0729L52.3062 67.8339C63.7479 61.7857 71.9214 49.6911 71.9214 35.9607ZM35.9607 68.6517C17.8179 68.6517 3.26975 53.9403 3.26975 35.9607C3.26975 17.8179 17.9812 3.26975 35.9607 3.26975C53.9403 3.26975 68.6517 17.9812 68.6517 35.9607C68.6666 40.2579 67.8312 44.5156 66.1936 48.4886C64.5559 52.4616 62.1485 56.0713 59.1099 59.1099C56.0713 62.1485 52.4616 64.556 48.4886 66.1936C44.5156 67.8312 40.2579 68.6666 35.9607 68.6517ZM50.6721 22.5569L55.576 27.4607L33.5088 49.5278L21.2493 37.2683L26.1531 32.3645L33.5088 39.7202L50.6721 22.5569Z" fill="black"/>
</svg>
