<svg width="207" height="182" viewBox="0 0 207 182" fill="none" xmlns="http://www.w3.org/2000/svg">
<path d="M103.5 0C78.4911 0 58.2188 20.052 58.2188 44.7891C58.2188 64.7877 87.8133 101.237 99.1516 114.468C101.448 117.148 105.556 117.148 107.848 114.468C119.187 101.237 148.781 64.7877 148.781 44.7891C148.781 20.052 128.509 0 103.5 0ZM103.5 59.7188C95.1625 59.7188 88.4062 53.0359 88.4062 44.7891C88.4062 36.5422 95.1625 29.8594 103.5 29.8594C111.838 29.8594 118.594 36.5422 118.594 44.7891C118.594 53.0359 111.838 59.7188 103.5 59.7188ZM7.23063 76.7635C5.09658 77.6078 3.26719 79.0651 1.97839 80.9475C0.6896 82.8299 0.000511106 85.051 0 87.3245L0 176.305C0 180.329 4.10766 183.081 7.88469 181.588L57.5 159.25V76.3973C54.3231 70.717 51.7248 65.1859 49.8633 59.8965L7.23063 76.7635ZM103.5 127.851C98.4436 127.851 93.6603 125.655 90.3792 121.823C83.3139 113.576 75.7994 104.184 69 94.5511V159.246L138 181.996V94.5547C131.201 104.184 123.69 113.579 116.621 121.826C113.34 125.655 108.556 127.851 103.5 127.851ZM199.115 57.2873L149.5 79.625V182L199.769 162.112C201.904 161.268 203.733 159.81 205.022 157.928C206.311 156.045 207 153.824 207 151.551V62.5696C207 58.5457 202.892 55.7944 199.115 57.2873Z" fill="black"/>
</svg>
