<svg width="85" height="125" viewBox="0 0 85 125" fill="none" xmlns="http://www.w3.org/2000/svg">
<path d="M11.3323 32.4648L1 35.8095" stroke="black" stroke-width="6" stroke-miterlimit="10"/>
<path d="M18.4058 10.7725L12.0225 2" stroke="black" stroke-width="6" stroke-miterlimit="10"/>
<path d="M41.2939 10.7725L47.6773 2" stroke="black" stroke-width="6" stroke-miterlimit="10"/>
<path d="M48.3674 32.4648L58.6997 35.8095" stroke="black" stroke-width="6" stroke-miterlimit="10"/>
<path d="M82.0864 65.0704H36.6934C36.424 65.073 36.1568 65.0226 35.907 64.9221C35.6572 64.8217 35.4296 64.6731 35.2374 64.485C35.0452 64.2969 34.892 64.0729 34.7866 63.8257C34.6812 63.5785 34.6256 63.3131 34.6231 63.0445V51.6919H28.8723V122.292C28.8774 122.831 29.0957 123.347 29.4798 123.726C29.8639 124.105 30.3827 124.318 30.9234 124.318H82.0864C82.6253 124.318 83.1421 124.105 83.5232 123.725C83.9042 123.345 84.1183 122.83 84.1183 122.292V67.211C84.134 66.9355 84.093 66.6597 83.998 66.4005C83.9029 66.1413 83.7557 65.9042 83.5654 65.7038C83.3752 65.5033 83.1458 65.3438 82.8915 65.2348C82.6371 65.1259 82.3632 65.07 82.0864 65.0704ZM42.08 117.342C41.2986 117.327 40.5391 117.083 39.8967 116.639C39.2544 116.195 38.7577 115.572 38.4691 114.848C38.1805 114.124 38.1128 113.331 38.2744 112.568C38.4361 111.806 38.8199 111.108 39.3778 110.563C39.9357 110.017 40.6427 109.648 41.4103 109.501C42.1779 109.355 42.9717 109.437 43.6923 109.739C44.413 110.04 45.0282 110.547 45.4609 111.196C45.8937 111.845 46.1246 112.607 46.1247 113.386C46.1248 113.912 46.0197 114.433 45.8155 114.918C45.6113 115.403 45.3121 115.843 44.9355 116.211C44.5589 116.579 44.1124 116.869 43.622 117.063C43.1317 117.258 42.6075 117.352 42.08 117.342ZM42.08 106.295C41.2986 106.28 40.5391 106.036 39.8967 105.592C39.2544 105.148 38.7577 104.525 38.4691 103.801C38.1805 103.077 38.1128 102.284 38.2744 101.522C38.4361 100.759 38.8199 100.062 39.3778 99.5159C39.9357 98.9702 40.6427 98.6009 41.4103 98.4544C42.1779 98.3078 42.9717 98.3905 43.6923 98.6921C44.413 98.9936 45.0282 99.5006 45.4609 100.149C45.8937 100.798 46.1246 101.56 46.1247 102.339C46.1248 102.865 46.0197 103.386 45.8155 103.871C45.6113 104.356 45.3121 104.796 44.9355 105.164C44.5589 105.532 44.1124 105.822 43.622 106.017C43.1317 106.211 42.6075 106.306 42.08 106.295ZM42.08 95.2295C41.2978 95.2144 40.5376 94.9692 39.8948 94.5245C39.252 94.0799 38.7554 93.4558 38.4674 92.7306C38.1793 92.0054 38.1128 91.2115 38.276 90.4486C38.4392 89.6858 38.8249 88.9881 39.3847 88.4432C39.9445 87.8983 40.6533 87.5306 41.4221 87.3862C42.1909 87.2418 42.9854 87.3272 43.7056 87.6317C44.4259 87.9361 45.0398 88.4461 45.4702 89.0974C45.9006 89.7488 46.1283 90.5124 46.1247 91.2924C46.1223 91.8168 46.0153 92.3355 45.8099 92.8183C45.6046 93.3012 45.3051 93.7385 44.9287 94.1048C44.5523 94.4712 44.1067 94.7593 43.6176 94.9524C43.1286 95.1454 42.6059 95.2396 42.08 95.2295ZM57.2813 117.342C56.4965 117.342 55.7293 117.11 55.0767 116.676C54.4242 116.241 53.9156 115.623 53.6153 114.9C53.3149 114.177 53.2363 113.382 53.3895 112.614C53.5426 111.847 53.9205 111.142 54.4754 110.589C55.0304 110.035 55.7374 109.659 56.5071 109.506C57.2769 109.353 58.0747 109.432 58.7998 109.731C59.5248 110.03 60.1446 110.538 60.5806 111.188C61.0166 111.839 61.2493 112.604 61.2493 113.386C61.2493 114.435 60.8312 115.442 60.0871 116.184C59.3429 116.926 58.3337 117.342 57.2813 117.342ZM57.2813 106.295C56.4965 106.295 55.7293 106.063 55.0767 105.629C54.4242 105.194 53.9156 104.576 53.6153 103.853C53.3149 103.13 53.2363 102.335 53.3895 101.567C53.5426 100.8 53.9205 100.095 54.4754 99.5418C55.0304 98.9885 55.7374 98.6117 56.5071 98.459C57.2769 98.3064 58.0747 98.3847 58.7998 98.6842C59.5248 98.9836 60.1446 99.4907 60.5806 100.141C61.0166 100.792 61.2493 101.557 61.2493 102.339C61.2493 102.859 61.1467 103.373 60.9473 103.853C60.7478 104.333 60.4556 104.769 60.0871 105.137C59.7186 105.504 59.2812 105.796 58.7998 105.994C58.3183 106.193 57.8024 106.295 57.2813 106.295ZM57.2813 95.2295C56.4956 95.2295 55.7277 94.997 55.0748 94.5614C54.4218 94.1258 53.9132 93.5068 53.6135 92.7828C53.3137 92.0588 53.2362 91.2624 53.3909 90.4944C53.5456 89.7265 53.9254 89.0216 54.4823 88.469C55.0391 87.9165 55.748 87.5412 56.5189 87.3908C57.2899 87.2403 58.0884 87.3213 58.8131 87.6237C59.5378 87.9261 60.1562 88.4361 60.5899 89.0892C61.0236 89.7424 61.2531 90.5091 61.2493 91.2924C61.2493 91.811 61.1465 92.3246 60.9469 92.8035C60.7473 93.2824 60.4547 93.7173 60.0859 94.0831C59.7172 94.449 59.2796 94.7386 58.7983 94.9353C58.317 95.132 57.8014 95.232 57.2813 95.2295ZM72.5017 117.342C71.7161 117.346 70.947 117.117 70.292 116.685C69.6369 116.252 69.1253 115.636 68.8221 114.913C68.5188 114.191 68.4375 113.395 68.5884 112.626C68.7393 111.857 69.1157 111.151 69.6699 110.595C70.2241 110.04 70.9311 109.662 71.7013 109.507C72.4716 109.353 73.2704 109.43 73.9966 109.729C74.7228 110.028 75.3436 110.535 75.7805 111.186C76.2174 111.837 76.4506 112.603 76.4506 113.386C76.4506 114.432 76.0352 115.435 75.2952 116.177C74.5551 116.918 73.5508 117.337 72.5017 117.342ZM72.5017 106.295C71.7161 106.299 70.947 106.07 70.292 105.638C69.6369 105.206 69.1253 104.589 68.8221 103.867C68.5188 103.144 68.4375 102.348 68.5884 101.579C68.7393 100.811 69.1157 100.104 69.6699 99.5486C70.2241 98.9934 70.9311 98.6147 71.7013 98.4605C72.4716 98.3063 73.2704 98.3835 73.9966 98.6824C74.7228 98.9812 75.3436 99.4883 75.7805 100.139C76.2174 100.79 76.4506 101.556 76.4506 102.339C76.4506 103.385 76.0352 104.389 75.2952 105.13C74.5551 105.871 73.5508 106.29 72.5017 106.295ZM72.5017 95.2295C71.7153 95.2333 70.9455 95.004 70.29 94.5707C69.6345 94.1375 69.123 93.5198 68.8203 92.7961C68.5176 92.0724 68.4374 91.2754 68.5899 90.5062C68.7423 89.737 69.1207 89.0303 69.6767 88.4758C70.2328 87.9214 70.9416 87.5442 71.7131 87.3922C72.4847 87.2401 73.2841 87.3201 74.0099 87.6219C74.7358 87.9237 75.3553 88.4337 75.7898 89.0873C76.2244 89.7408 76.4544 90.5083 76.4506 91.2924C76.4455 92.335 76.0279 93.3335 75.2884 94.0708C74.549 94.8081 73.5475 95.2245 72.5017 95.2295ZM80.2845 77.8183C80.287 78.1528 80.2228 78.4845 80.0956 78.794C79.9684 79.1036 79.7807 79.3848 79.5434 79.6214C79.3061 79.8579 79.0241 80.0451 78.7136 80.1719C78.4031 80.2987 78.0705 80.3628 77.7349 80.3602H38.7445C38.0683 80.3602 37.4199 80.0924 36.9417 79.6157C36.4636 79.139 36.195 78.4924 36.195 77.8183V73.346C36.2 72.6734 36.4702 72.0298 36.9473 71.5541C37.4243 71.0785 38.0699 70.8091 38.7445 70.8041H77.7349C78.4111 70.8041 79.0596 71.0719 79.5377 71.5486C80.0158 72.0253 80.2845 72.6719 80.2845 73.346V77.8183Z" fill="black"/>
<path d="M29.8498 40.4539C37.5995 40.4539 43.8818 34.1903 43.8818 26.4638C43.8818 18.7372 37.5995 12.4736 29.8498 12.4736C22.1002 12.4736 15.8179 18.7372 15.8179 26.4638C15.8179 34.1903 22.1002 40.4539 29.8498 40.4539Z" stroke="black" stroke-width="6" stroke-miterlimit="10"/>
</svg>
