<svg width="180" height="40" viewBox="0 0 180 40" fill="none" xmlns="http://www.w3.org/2000/svg">
<g clip-path="url(#clip0_30_326)">
<path d="M56.2113 6.18276C55.8816 4.98762 55.2384 3.89806 54.3458 3.02261C53.4532 2.14716 52.3423 1.51638 51.1238 1.1931C46.6629 0 28.7107 0 28.7107 0C28.7107 0 10.7578 0.0362069 6.2975 1.22931C5.07906 1.55264 3.96825 2.18345 3.07571 3.05889C2.18316 3.93433 1.54004 5.02387 1.21039 6.21897C-0.138906 13.9931 -0.662382 25.8383 1.24731 33.301C1.57695 34.4961 2.22008 35.5857 3.11262 36.4611C4.00516 37.3366 5.11597 37.9674 6.33441 38.2907C10.795 39.4838 28.7476 39.4838 28.7476 39.4838C28.7476 39.4838 46.7001 39.4838 51.1607 38.2907C52.3792 37.9674 53.49 37.3366 54.3825 36.4611C55.2751 35.5857 55.9182 34.4961 56.2479 33.301C57.6706 25.5162 58.1094 13.6783 56.2109 6.1831" fill="#FF0000"/>
<path d="M22.9968 28.203L37.8897 19.7423L22.9968 11.2812V28.203Z" fill="white"/>
<path d="M172.701 11.4619C174.654 11.4619 176.129 11.8233 177.161 12.5102C178.193 13.1973 178.93 14.2822 179.373 15.7647C179.815 17.2471 179.999 19.2716 179.999 21.875V26.1057H170.525V27.4071L170.673 30.9868C170.783 31.7823 170.968 32.3609 171.263 32.7223C171.558 33.084 172.037 33.2647 172.664 33.2647C173.512 33.2647 174.101 32.9395 174.396 32.2888C174.728 31.6378 174.875 30.553 174.912 29.0705L179.815 29.3599C179.852 29.5768 179.852 29.8661 179.852 30.2274C179.852 32.5054 179.225 34.205 177.935 35.3257C176.645 36.4464 174.875 37.025 172.553 37.025C169.751 37.025 167.798 36.1574 166.692 34.4581C165.586 32.7585 164.996 30.0826 164.996 26.5033V22.1281C165.121 15.9816 166.223 11.4799 172.701 11.4619ZM104.54 11.9319V30.0468C104.54 31.1316 104.65 31.9271 104.908 32.3971C105.431 33.4023 106.788 33.1454 107.525 32.6502C107.951 32.3679 108.294 31.9816 108.521 31.5295V11.9316H114.161V36.6271H109.737L109.258 33.5899H109.147C107.931 35.8678 106.124 37.0247 103.729 37.0247C100.041 37.0157 99.1382 34.4095 98.9234 31.7626L98.9093 31.5761C98.8827 31.1752 98.8671 30.7736 98.8625 30.3719V11.9319H104.54ZM133.625 11.9319V30.0468C133.625 31.1316 133.735 31.9271 133.993 32.3971C134.517 33.4023 135.874 33.1454 136.611 32.6502C137.036 32.3679 137.379 31.9816 137.606 31.5295V11.9316H143.246V36.6271H138.823L138.343 33.5899H138.233C137.017 35.8678 135.21 37.0247 132.814 37.0247C129.126 37.0157 128.224 34.4095 128.009 31.7626L127.995 31.5761C127.968 31.1752 127.953 30.7736 127.948 30.3719V11.9319H133.625ZM88.1719 11.4619C90.0151 11.4619 91.5265 11.8233 92.6325 12.5826C93.7382 13.3419 94.5861 14.4992 95.1022 16.0899C95.6183 17.6809 95.8764 19.814 95.8764 22.4537V26.033C95.8764 28.6726 95.6183 30.7699 95.1022 32.3605C94.5861 33.9519 93.7751 35.1088 92.6325 35.8681C91.4899 36.5912 89.9413 36.9888 88.0246 36.9888C86.0337 37.025 84.4854 36.6274 83.3428 35.9043C82.2002 35.145 81.3888 33.9878 80.91 32.3971C80.4305 30.8061 80.2093 28.7088 80.2093 26.0695V22.4895C80.2093 19.8499 80.4674 17.6806 81.0204 16.0895C81.5734 14.4626 82.421 13.3054 83.6009 12.5826C84.7804 11.8592 86.2917 11.4619 88.1719 11.4619ZM152.094 1.55469V14.5712H152.131C152.647 13.6312 153.31 12.8719 154.232 12.2933C155.093 11.7259 156.107 11.4238 157.144 11.4257C158.508 11.4257 159.54 11.7871 160.314 12.474C161.088 13.1974 161.641 14.3181 161.973 15.873C162.295 17.3792 162.477 19.4623 162.489 22.0892L162.489 22.3454V26.2502C162.489 29.9019 162.01 32.614 161.125 34.3495C160.204 36.085 158.803 36.953 156.886 36.953C155.817 36.953 154.858 36.6999 153.974 36.2299C153.192 35.7824 152.543 35.1412 152.093 34.3706L152.02 34.2409H151.909L151.32 36.5912H146.638V1.55503L152.094 1.55469ZM129.533 2.8202V7.30331H123.93V36.6271H118.4V7.30365H112.76V2.82055L129.533 2.8202ZM68.7445 2.8202L68.748 2.834C68.8018 3.06883 69.5471 6.31883 70.367 10.1054L70.4317 10.4054L70.5294 10.8588L70.5948 11.1633L70.6275 11.3161L70.6929 11.6223L70.7256 11.7757L70.7906 12.083L70.8855 12.5323C71.4393 15.1543 71.9677 17.784 72.2837 19.6695H72.4314C72.7341 17.9781 73.1739 15.8137 73.6429 13.6037L73.7659 13.0264C73.8275 12.7372 73.8896 12.4485 73.9522 12.1602L74.0486 11.713C74.6854 8.78429 75.3413 5.85963 76.0162 2.93917L76.0268 2.89262L76.0437 2.8202H81.6838L75.1588 25.6357V36.5912H69.5925V25.6716H69.5556L63.1044 2.81986L68.7445 2.8202ZM88.0611 15.2943C87.287 15.2943 86.7709 15.6923 86.4394 16.524C86.1078 17.3557 85.9602 18.6209 85.9602 20.393V28.0943C85.9602 29.9023 86.1075 31.2399 86.4025 32.0357C86.6975 32.8311 87.2504 33.2288 88.0611 33.2288C88.8353 33.2288 89.3883 32.8311 89.7202 32.0357C90.052 31.2399 90.1993 29.9023 90.1993 28.0943V20.3926C90.1993 18.6209 90.0517 17.3192 89.7202 16.5237C89.3883 15.6923 88.8353 15.2943 88.0611 15.2943ZM153.089 16.0178C152.64 16.4247 152.32 16.9264 152.13 17.5537L152.094 17.6809V31.7099C152.551 32.4692 153.2 32.9754 154.342 33.0116C154.932 33.0116 155.411 32.7947 155.78 32.3609C156.149 31.9271 156.407 31.2039 156.554 30.1912C156.696 29.2195 156.769 27.8811 156.775 26.1761V22.743C156.775 20.7906 156.701 19.3081 156.591 18.2595C156.443 17.2109 156.259 16.4516 155.927 16.0178C155.286 15.1137 153.9 15.1247 153.089 16.0178ZM172.59 15.1861C171.963 15.2222 171.521 15.403 171.263 15.7285C170.968 16.0899 170.783 16.6323 170.673 17.4278C170.564 18.2071 170.527 20.9312 170.525 21.0402V22.8154H174.654V21.2499V21.2799C174.652 21.8271 174.64 20.9623 174.615 19.9006L174.611 19.7578C174.588 18.8247 174.554 17.7843 174.507 17.4278C174.396 16.5961 174.212 16.0174 173.917 15.6923C173.622 15.3668 173.18 15.1861 172.59 15.1861Z" fill="#282828"/>
</g>
<defs>
<clipPath id="clip0_30_326">
<rect width="180" height="40" fill="white"/>
</clipPath>
</defs>
</svg>
