<svg width="76" height="76" viewBox="0 0 76 76" fill="none" xmlns="http://www.w3.org/2000/svg">
<path d="M37.9999 63.3334C44.7187 63.3334 51.1624 60.6643 55.9133 55.9134C60.6642 51.1625 63.3332 44.7189 63.3332 38C63.3332 31.2812 60.6642 24.8376 55.9133 20.0867C51.1624 15.3357 44.7187 12.6667 37.9999 12.6667C31.2811 12.6667 24.8375 15.3357 20.0865 20.0867C15.3356 24.8376 12.6666 31.2812 12.6666 38C12.6666 44.7189 15.3356 51.1625 20.0865 55.9134C24.8375 60.6643 31.2811 63.3334 37.9999 63.3334ZM37.9999 69.6667C20.5104 69.6667 6.33325 55.4895 6.33325 38C6.33325 20.5105 20.5104 6.33337 37.9999 6.33337C55.4894 6.33337 69.6666 20.5105 69.6666 38C69.6666 55.4895 55.4894 69.6667 37.9999 69.6667Z" fill="#FED438"/>
<path d="M47.256 26.999H28.7437C25.1115 26.999 22.1665 29.9124 22.1665 33.5034V42.655C22.1665 46.2492 25.1115 49.1594 28.7437 49.1594H47.256C50.8882 49.1594 53.8332 46.246 53.8332 42.655V33.5034C53.8332 29.9092 50.8882 26.999 47.256 26.999ZM42.81 38.5257L34.1492 42.6107C34.0962 42.6357 34.0377 42.647 33.9793 42.6434C33.9208 42.6399 33.8641 42.6217 33.8145 42.5904C33.765 42.5591 33.7241 42.5159 33.6957 42.4646C33.6673 42.4134 33.6522 42.3558 33.652 42.2972V33.8739C33.6525 33.8145 33.6682 33.7563 33.6976 33.7047C33.7269 33.6531 33.769 33.6099 33.8197 33.5791C33.8705 33.5483 33.9283 33.531 33.9876 33.5289C34.0469 33.5267 34.1058 33.5397 34.1587 33.5667L42.8163 37.905C42.8733 37.9348 42.9209 37.9797 42.9539 38.0348C42.9869 38.0899 43.004 38.1531 43.0033 38.2173C43.0027 38.2815 42.9843 38.3443 42.9501 38.3988C42.916 38.4532 42.8675 38.4971 42.81 38.5257Z" fill="#FED438"/>
</svg>
