<svg width="641" height="100" viewBox="0 0 641 100" fill="none" xmlns="http://www.w3.org/2000/svg">
<path d="M10.1792 37.231C8.66122 37.231 7.29722 36.967 6.08722 36.439C4.89922 35.889 3.96421 35.141 3.28221 34.195C2.60021 33.227 2.24821 32.116 2.22621 30.862H5.42722C5.53722 31.94 5.97722 32.853 6.74722 33.601C7.53921 34.327 8.68322 34.69 10.1792 34.69C11.6092 34.69 12.7312 34.338 13.5452 33.634C14.3812 32.908 14.7992 31.984 14.7992 30.862C14.7992 29.982 14.5572 29.267 14.0732 28.717C13.5892 28.167 12.9842 27.749 12.2582 27.463C11.5322 27.177 10.5532 26.869 9.32122 26.539C7.80322 26.143 6.58222 25.747 5.65822 25.351C4.75622 24.955 3.97521 24.339 3.31521 23.503C2.67721 22.645 2.35821 21.501 2.35821 20.071C2.35821 18.817 2.67721 17.706 3.31521 16.738C3.95321 15.77 4.84421 15.022 5.98821 14.494C7.15422 13.966 8.48522 13.702 9.98122 13.702C12.1372 13.702 13.8972 14.241 15.2612 15.319C16.6472 16.397 17.4282 17.827 17.6042 19.609H14.3042C14.1942 18.729 13.7322 17.959 12.9182 17.299C12.1042 16.617 11.0262 16.276 9.68422 16.276C8.43022 16.276 7.40722 16.606 6.61522 17.266C5.82322 17.904 5.42722 18.806 5.42722 19.972C5.42722 20.808 5.65822 21.49 6.12022 22.018C6.60422 22.546 7.18722 22.953 7.86922 23.239C8.57322 23.503 9.55222 23.811 10.8062 24.163C12.3242 24.581 13.5452 24.999 14.4692 25.417C15.3932 25.813 16.1852 26.44 16.8452 27.298C17.5052 28.134 17.8352 29.278 17.8352 30.73C17.8352 31.852 17.5382 32.908 16.9442 33.898C16.3502 34.888 15.4702 35.691 14.3042 36.307C13.1382 36.923 11.7632 37.231 10.1792 37.231ZM38.2924 18.916V37H35.2894V34.327C34.7174 35.251 33.9144 35.977 32.8804 36.505C31.8684 37.011 30.7464 37.264 29.5144 37.264C28.1064 37.264 26.8414 36.978 25.7194 36.406C24.5974 35.812 23.7064 34.932 23.0464 33.766C22.4084 32.6 22.0894 31.181 22.0894 29.509V18.916H25.0594V29.113C25.0594 30.895 25.5104 32.27 26.4124 33.238C27.3144 34.184 28.5464 34.657 30.1084 34.657C31.7144 34.657 32.9794 34.162 33.9034 33.172C34.8274 32.182 35.2894 30.741 35.2894 28.849V18.916H38.2924ZM46.3658 22.282C46.9818 21.204 47.8838 20.324 49.0718 19.642C50.2598 18.96 51.6128 18.619 53.1308 18.619C54.7588 18.619 56.2218 19.004 57.5198 19.774C58.8178 20.544 59.8408 21.633 60.5888 23.041C61.3368 24.427 61.7108 26.044 61.7108 27.892C61.7108 29.718 61.3368 31.346 60.5888 32.776C59.8408 34.206 58.8068 35.317 57.4868 36.109C56.1888 36.901 54.7368 37.297 53.1308 37.297C51.5688 37.297 50.1938 36.956 49.0058 36.274C47.8398 35.592 46.9598 34.723 46.3658 33.667V37H43.3628V12.58H46.3658V22.282ZM58.6418 27.892C58.6418 26.528 58.3668 25.34 57.8168 24.328C57.2668 23.316 56.5188 22.546 55.5728 22.018C54.6488 21.49 53.6258 21.226 52.5038 21.226C51.4038 21.226 50.3808 21.501 49.4348 22.051C48.5108 22.579 47.7628 23.36 47.1908 24.394C46.6408 25.406 46.3658 26.583 46.3658 27.925C46.3658 29.289 46.6408 30.488 47.1908 31.522C47.7628 32.534 48.5108 33.315 49.4348 33.865C50.3808 34.393 51.4038 34.657 52.5038 34.657C53.6258 34.657 54.6488 34.393 55.5728 33.865C56.5188 33.315 57.2668 32.534 57.8168 31.522C58.3668 30.488 58.6418 29.278 58.6418 27.892ZM72.0656 37.297C70.6796 37.297 69.4366 37.066 68.3366 36.604C67.2366 36.12 66.3676 35.46 65.7296 34.624C65.0916 33.766 64.7396 32.787 64.6736 31.687H67.7756C67.8636 32.589 68.2816 33.326 69.0296 33.898C69.7996 34.47 70.8006 34.756 72.0326 34.756C73.1766 34.756 74.0786 34.503 74.7386 33.997C75.3986 33.491 75.7286 32.853 75.7286 32.083C75.7286 31.291 75.3766 30.708 74.6726 30.334C73.9686 29.938 72.8796 29.553 71.4056 29.179C70.0636 28.827 68.9636 28.475 68.1056 28.123C67.2696 27.749 66.5436 27.21 65.9276 26.506C65.3336 25.78 65.0366 24.834 65.0366 23.668C65.0366 22.744 65.3116 21.897 65.8616 21.127C66.4116 20.357 67.1926 19.752 68.2046 19.312C69.2166 18.85 70.3716 18.619 71.6696 18.619C73.6716 18.619 75.2886 19.125 76.5206 20.137C77.7526 21.149 78.4126 22.535 78.5006 24.295H75.4976C75.4316 23.349 75.0466 22.59 74.3426 22.018C73.6606 21.446 72.7366 21.16 71.5706 21.16C70.4926 21.16 69.6346 21.391 68.9966 21.853C68.3586 22.315 68.0396 22.92 68.0396 23.668C68.0396 24.262 68.2266 24.757 68.6006 25.153C68.9966 25.527 69.4806 25.835 70.0526 26.077C70.6466 26.297 71.4606 26.55 72.4946 26.836C73.7926 27.188 74.8486 27.54 75.6626 27.892C76.4766 28.222 77.1696 28.728 77.7416 29.41C78.3356 30.092 78.6436 30.983 78.6656 32.083C78.6656 33.073 78.3906 33.964 77.8406 34.756C77.2906 35.548 76.5096 36.175 75.4976 36.637C74.5076 37.077 73.3636 37.297 72.0656 37.297ZM81.7828 27.925C81.7828 26.055 82.1568 24.427 82.9048 23.041C83.6528 21.633 84.6868 20.544 86.0068 19.774C87.3488 19.004 88.8778 18.619 90.5938 18.619C92.8158 18.619 94.6418 19.158 96.0718 20.236C97.5238 21.314 98.4808 22.81 98.9428 24.724H95.7088C95.4008 23.624 94.7958 22.755 93.8938 22.117C93.0138 21.479 91.9138 21.16 90.5938 21.16C88.8778 21.16 87.4918 21.754 86.4358 22.942C85.3798 24.108 84.8518 25.769 84.8518 27.925C84.8518 30.103 85.3798 31.786 86.4358 32.974C87.4918 34.162 88.8778 34.756 90.5938 34.756C91.9138 34.756 93.0138 34.448 93.8938 33.832C94.7738 33.216 95.3788 32.336 95.7088 31.192H98.9428C98.4588 33.04 97.4908 34.525 96.0388 35.647C94.5868 36.747 92.7718 37.297 90.5938 37.297C88.8778 37.297 87.3488 36.912 86.0068 36.142C84.6868 35.372 83.6528 34.283 82.9048 32.875C82.1568 31.467 81.7828 29.817 81.7828 27.925ZM105.953 21.853C106.481 20.819 107.229 20.016 108.197 19.444C109.187 18.872 110.386 18.586 111.794 18.586V21.688H111.002C107.636 21.688 105.953 23.514 105.953 27.166V37H102.95V18.916H105.953V21.853ZM116.811 15.979C116.239 15.979 115.755 15.781 115.359 15.385C114.963 14.989 114.765 14.505 114.765 13.933C114.765 13.361 114.963 12.877 115.359 12.481C115.755 12.085 116.239 11.887 116.811 11.887C117.361 11.887 117.823 12.085 118.197 12.481C118.593 12.877 118.791 13.361 118.791 13.933C118.791 14.505 118.593 14.989 118.197 15.385C117.823 15.781 117.361 15.979 116.811 15.979ZM118.263 18.916V37H115.26V18.916H118.263ZM126.384 22.282C127 21.204 127.902 20.324 129.09 19.642C130.278 18.96 131.631 18.619 133.149 18.619C134.777 18.619 136.24 19.004 137.538 19.774C138.836 20.544 139.859 21.633 140.607 23.041C141.355 24.427 141.729 26.044 141.729 27.892C141.729 29.718 141.355 31.346 140.607 32.776C139.859 34.206 138.825 35.317 137.505 36.109C136.207 36.901 134.755 37.297 133.149 37.297C131.587 37.297 130.212 36.956 129.024 36.274C127.858 35.592 126.978 34.723 126.384 33.667V37H123.381V12.58H126.384V22.282ZM138.66 27.892C138.66 26.528 138.385 25.34 137.835 24.328C137.285 23.316 136.537 22.546 135.591 22.018C134.667 21.49 133.644 21.226 132.522 21.226C131.422 21.226 130.399 21.501 129.453 22.051C128.529 22.579 127.781 23.36 127.209 24.394C126.659 25.406 126.384 26.583 126.384 27.925C126.384 29.289 126.659 30.488 127.209 31.522C127.781 32.534 128.529 33.315 129.453 33.865C130.399 34.393 131.422 34.657 132.522 34.657C133.644 34.657 134.667 34.393 135.591 33.865C136.537 33.315 137.285 32.534 137.835 31.522C138.385 30.488 138.66 29.278 138.66 27.892ZM162.182 27.265C162.182 27.837 162.149 28.442 162.083 29.08H147.629C147.739 30.862 148.344 32.259 149.444 33.271C150.566 34.261 151.919 34.756 153.503 34.756C154.801 34.756 155.879 34.459 156.737 33.865C157.617 33.249 158.233 32.435 158.585 31.423H161.819C161.335 33.161 160.367 34.58 158.915 35.68C157.463 36.758 155.659 37.297 153.503 37.297C151.787 37.297 150.247 36.912 148.883 36.142C147.541 35.372 146.485 34.283 145.715 32.875C144.945 31.445 144.56 29.795 144.56 27.925C144.56 26.055 144.934 24.416 145.682 23.008C146.43 21.6 147.475 20.522 148.817 19.774C150.181 19.004 151.743 18.619 153.503 18.619C155.219 18.619 156.737 18.993 158.057 19.741C159.377 20.489 160.389 21.523 161.093 22.843C161.819 24.141 162.182 25.615 162.182 27.265ZM159.08 26.638C159.08 25.494 158.827 24.515 158.321 23.701C157.815 22.865 157.122 22.238 156.242 21.82C155.384 21.38 154.427 21.16 153.371 21.16C151.853 21.16 150.555 21.644 149.477 22.612C148.421 23.58 147.816 24.922 147.662 26.638H159.08ZM178.607 21.391V32.05C178.607 32.93 178.794 33.557 179.168 33.931C179.542 34.283 180.191 34.459 181.115 34.459H183.326V37H180.62C178.948 37 177.694 36.615 176.858 35.845C176.022 35.075 175.604 33.81 175.604 32.05V21.391H173.261V18.916H175.604V14.362H178.607V18.916H183.326V21.391H178.607ZM194.851 37.297C193.157 37.297 191.617 36.912 190.231 36.142C188.867 35.372 187.789 34.283 186.997 32.875C186.227 31.445 185.842 29.795 185.842 27.925C185.842 26.077 186.238 24.449 187.03 23.041C187.844 21.611 188.944 20.522 190.33 19.774C191.716 19.004 193.267 18.619 194.983 18.619C196.699 18.619 198.25 19.004 199.636 19.774C201.022 20.522 202.111 21.6 202.903 23.008C203.717 24.416 204.124 26.055 204.124 27.925C204.124 29.795 203.706 31.445 202.87 32.875C202.056 34.283 200.945 35.372 199.537 36.142C198.129 36.912 196.567 37.297 194.851 37.297ZM194.851 34.657C195.929 34.657 196.941 34.404 197.887 33.898C198.833 33.392 199.592 32.633 200.164 31.621C200.758 30.609 201.055 29.377 201.055 27.925C201.055 26.473 200.769 25.241 200.197 24.229C199.625 23.217 198.877 22.469 197.953 21.985C197.029 21.479 196.028 21.226 194.95 21.226C193.85 21.226 192.838 21.479 191.914 21.985C191.012 22.469 190.286 23.217 189.736 24.229C189.186 25.241 188.911 26.473 188.911 27.925C188.911 29.399 189.175 30.642 189.703 31.654C190.253 32.666 190.979 33.425 191.881 33.931C192.783 34.415 193.773 34.657 194.851 34.657ZM224.758 37.297C223.064 37.297 221.524 36.912 220.138 36.142C218.774 35.372 217.696 34.283 216.904 32.875C216.134 31.445 215.749 29.795 215.749 27.925C215.749 26.077 216.145 24.449 216.937 23.041C217.751 21.611 218.851 20.522 220.237 19.774C221.623 19.004 223.174 18.619 224.89 18.619C226.606 18.619 228.157 19.004 229.543 19.774C230.929 20.522 232.018 21.6 232.81 23.008C233.624 24.416 234.031 26.055 234.031 27.925C234.031 29.795 233.613 31.445 232.777 32.875C231.963 34.283 230.852 35.372 229.444 36.142C228.036 36.912 226.474 37.297 224.758 37.297ZM224.758 34.657C225.836 34.657 226.848 34.404 227.794 33.898C228.74 33.392 229.499 32.633 230.071 31.621C230.665 30.609 230.962 29.377 230.962 27.925C230.962 26.473 230.676 25.241 230.104 24.229C229.532 23.217 228.784 22.469 227.86 21.985C226.936 21.479 225.935 21.226 224.857 21.226C223.757 21.226 222.745 21.479 221.821 21.985C220.919 22.469 220.193 23.217 219.643 24.229C219.093 25.241 218.818 26.473 218.818 27.925C218.818 29.399 219.082 30.642 219.61 31.654C220.16 32.666 220.886 33.425 221.788 33.931C222.69 34.415 223.68 34.657 224.758 34.657ZM254.017 18.916V37H251.014V34.327C250.442 35.251 249.639 35.977 248.605 36.505C247.593 37.011 246.471 37.264 245.239 37.264C243.831 37.264 242.566 36.978 241.444 36.406C240.322 35.812 239.431 34.932 238.771 33.766C238.133 32.6 237.814 31.181 237.814 29.509V18.916H240.784V29.113C240.784 30.895 241.235 32.27 242.137 33.238C243.039 34.184 244.271 34.657 245.833 34.657C247.439 34.657 248.704 34.162 249.628 33.172C250.552 32.182 251.014 30.741 251.014 28.849V18.916H254.017ZM262.09 21.853C262.618 20.819 263.366 20.016 264.334 19.444C265.324 18.872 266.523 18.586 267.931 18.586V21.688H267.139C263.773 21.688 262.09 23.514 262.09 27.166V37H259.087V18.916H262.09V21.853ZM507.818 27.925C507.818 26.055 508.192 24.427 508.94 23.041C509.688 21.633 510.722 20.544 512.042 19.774C513.384 19.004 514.913 18.619 516.629 18.619C518.851 18.619 520.677 19.158 522.107 20.236C523.559 21.314 524.516 22.81 524.978 24.724H521.744C521.436 23.624 520.831 22.755 519.929 22.117C519.049 21.479 517.949 21.16 516.629 21.16C514.913 21.16 513.527 21.754 512.471 22.942C511.415 24.108 510.887 25.769 510.887 27.925C510.887 30.103 511.415 31.786 512.471 32.974C513.527 34.162 514.913 34.756 516.629 34.756C517.949 34.756 519.049 34.448 519.929 33.832C520.809 33.216 521.414 32.336 521.744 31.192H524.978C524.494 33.04 523.526 34.525 522.074 35.647C520.622 36.747 518.807 37.297 516.629 37.297C514.913 37.297 513.384 36.912 512.042 36.142C510.722 35.372 509.688 34.283 508.94 32.875C508.192 31.467 507.818 29.817 507.818 27.925ZM537.961 18.586C539.325 18.586 540.557 18.883 541.657 19.477C542.757 20.049 543.615 20.918 544.231 22.084C544.869 23.25 545.188 24.669 545.188 26.341V37H542.218V26.77C542.218 24.966 541.767 23.591 540.865 22.645C539.963 21.677 538.731 21.193 537.169 21.193C535.585 21.193 534.32 21.688 533.374 22.678C532.45 23.668 531.988 25.109 531.988 27.001V37H528.985V12.58H531.988V21.49C532.582 20.566 533.396 19.851 534.43 19.345C535.486 18.839 536.663 18.586 537.961 18.586ZM548.971 27.892C548.971 26.044 549.345 24.427 550.093 23.041C550.841 21.633 551.864 20.544 553.162 19.774C554.482 19.004 555.945 18.619 557.551 18.619C559.135 18.619 560.51 18.96 561.676 19.642C562.842 20.324 563.711 21.182 564.283 22.216V18.916H567.319V37H564.283V33.634C563.689 34.69 562.798 35.57 561.61 36.274C560.444 36.956 559.08 37.297 557.518 37.297C555.912 37.297 554.46 36.901 553.162 36.109C551.864 35.317 550.841 34.206 550.093 32.776C549.345 31.346 548.971 29.718 548.971 27.892ZM564.283 27.925C564.283 26.561 564.008 25.373 563.458 24.361C562.908 23.349 562.16 22.579 561.214 22.051C560.29 21.501 559.267 21.226 558.145 21.226C557.023 21.226 556 21.49 555.076 22.018C554.152 22.546 553.415 23.316 552.865 24.328C552.315 25.34 552.04 26.528 552.04 27.892C552.04 29.278 552.315 30.488 552.865 31.522C553.415 32.534 554.152 33.315 555.076 33.865C556 34.393 557.023 34.657 558.145 34.657C559.267 34.657 560.29 34.393 561.214 33.865C562.16 33.315 562.908 32.534 563.458 31.522C564.008 30.488 564.283 29.289 564.283 27.925ZM581.205 18.586C583.405 18.586 585.187 19.257 586.551 20.599C587.915 21.919 588.597 23.833 588.597 26.341V37H585.627V26.77C585.627 24.966 585.176 23.591 584.274 22.645C583.372 21.677 582.14 21.193 580.578 21.193C578.994 21.193 577.729 21.688 576.783 22.678C575.859 23.668 575.397 25.109 575.397 27.001V37H572.394V18.916H575.397V21.49C575.991 20.566 576.794 19.851 577.806 19.345C578.84 18.839 579.973 18.586 581.205 18.586ZM602.313 18.586C604.513 18.586 606.295 19.257 607.659 20.599C609.023 21.919 609.705 23.833 609.705 26.341V37H606.735V26.77C606.735 24.966 606.284 23.591 605.382 22.645C604.48 21.677 603.248 21.193 601.686 21.193C600.102 21.193 598.837 21.688 597.891 22.678C596.967 23.668 596.505 25.109 596.505 27.001V37H593.502V18.916H596.505V21.49C597.099 20.566 597.902 19.851 598.914 19.345C599.948 18.839 601.081 18.586 602.313 18.586ZM631.111 27.265C631.111 27.837 631.078 28.442 631.012 29.08H616.558C616.668 30.862 617.273 32.259 618.373 33.271C619.495 34.261 620.848 34.756 622.432 34.756C623.73 34.756 624.808 34.459 625.666 33.865C626.546 33.249 627.162 32.435 627.514 31.423H630.748C630.264 33.161 629.296 34.58 627.844 35.68C626.392 36.758 624.588 37.297 622.432 37.297C620.716 37.297 619.176 36.912 617.812 36.142C616.47 35.372 615.414 34.283 614.644 32.875C613.874 31.445 613.489 29.795 613.489 27.925C613.489 26.055 613.863 24.416 614.611 23.008C615.359 21.6 616.404 20.522 617.746 19.774C619.11 19.004 620.672 18.619 622.432 18.619C624.148 18.619 625.666 18.993 626.986 19.741C628.306 20.489 629.318 21.523 630.022 22.843C630.748 24.141 631.111 25.615 631.111 27.265ZM628.009 26.638C628.009 25.494 627.756 24.515 627.25 23.701C626.744 22.865 626.051 22.238 625.171 21.82C624.313 21.38 623.356 21.16 622.3 21.16C620.782 21.16 619.484 21.644 618.406 22.612C617.35 23.58 616.745 24.922 616.591 26.638H628.009ZM638.078 12.58V37H635.075V12.58H638.078ZM135.391 71.391V82.05C135.391 82.93 135.578 83.557 135.952 83.931C136.326 84.283 136.975 84.459 137.899 84.459H140.11V87H137.404C135.732 87 134.478 86.615 133.642 85.845C132.806 85.075 132.388 83.81 132.388 82.05V71.391H130.045V68.916H132.388V64.362H135.391V68.916H140.11V71.391H135.391ZM151.636 87.297C149.942 87.297 148.402 86.912 147.016 86.142C145.652 85.372 144.574 84.283 143.782 82.875C143.012 81.445 142.627 79.795 142.627 77.925C142.627 76.077 143.023 74.449 143.815 73.041C144.629 71.611 145.729 70.522 147.115 69.774C148.501 69.004 150.052 68.619 151.768 68.619C153.484 68.619 155.035 69.004 156.421 69.774C157.807 70.522 158.896 71.6 159.688 73.008C160.502 74.416 160.909 76.055 160.909 77.925C160.909 79.795 160.491 81.445 159.655 82.875C158.841 84.283 157.73 85.372 156.322 86.142C154.914 86.912 153.352 87.297 151.636 87.297ZM151.636 84.657C152.714 84.657 153.726 84.404 154.672 83.898C155.618 83.392 156.377 82.633 156.949 81.621C157.543 80.609 157.84 79.377 157.84 77.925C157.84 76.473 157.554 75.241 156.982 74.229C156.41 73.217 155.662 72.469 154.738 71.985C153.814 71.479 152.813 71.226 151.735 71.226C150.635 71.226 149.623 71.479 148.699 71.985C147.797 72.469 147.071 73.217 146.521 74.229C145.971 75.241 145.696 76.473 145.696 77.925C145.696 79.399 145.96 80.642 146.488 81.654C147.038 82.666 147.764 83.425 148.666 83.931C149.568 84.415 150.558 84.657 151.636 84.657ZM190.155 77.265C190.155 77.837 190.122 78.442 190.056 79.08H175.602C175.712 80.862 176.317 82.259 177.417 83.271C178.539 84.261 179.892 84.756 181.476 84.756C182.774 84.756 183.852 84.459 184.71 83.865C185.59 83.249 186.206 82.435 186.558 81.423H189.792C189.308 83.161 188.34 84.58 186.888 85.68C185.436 86.758 183.632 87.297 181.476 87.297C179.76 87.297 178.22 86.912 176.856 86.142C175.514 85.372 174.458 84.283 173.688 82.875C172.918 81.445 172.533 79.795 172.533 77.925C172.533 76.055 172.907 74.416 173.655 73.008C174.403 71.6 175.448 70.522 176.79 69.774C178.154 69.004 179.716 68.619 181.476 68.619C183.192 68.619 184.71 68.993 186.03 69.741C187.35 70.489 188.362 71.523 189.066 72.843C189.792 74.141 190.155 75.615 190.155 77.265ZM187.053 76.638C187.053 75.494 186.8 74.515 186.294 73.701C185.788 72.865 185.095 72.238 184.215 71.82C183.357 71.38 182.4 71.16 181.344 71.16C179.826 71.16 178.528 71.644 177.45 72.612C176.394 73.58 175.789 74.922 175.635 76.638H187.053ZM203.557 87L199.267 80.268L195.142 87H192.007L197.848 78.024L192.007 68.916H195.406L199.696 75.615L203.788 68.916H206.923L201.115 77.859L206.956 87H203.557ZM212.913 72.249C213.507 71.215 214.387 70.357 215.553 69.675C216.741 68.971 218.116 68.619 219.678 68.619C221.284 68.619 222.736 69.004 224.034 69.774C225.354 70.544 226.388 71.633 227.136 73.041C227.884 74.427 228.258 76.044 228.258 77.892C228.258 79.718 227.884 81.346 227.136 82.776C226.388 84.206 225.354 85.317 224.034 86.109C222.736 86.901 221.284 87.297 219.678 87.297C218.138 87.297 216.774 86.956 215.586 86.274C214.42 85.57 213.529 84.701 212.913 83.667V95.58H209.91V68.916H212.913V72.249ZM225.189 77.892C225.189 76.528 224.914 75.34 224.364 74.328C223.814 73.316 223.066 72.546 222.12 72.018C221.196 71.49 220.173 71.226 219.051 71.226C217.951 71.226 216.928 71.501 215.982 72.051C215.058 72.579 214.31 73.36 213.738 74.394C213.188 75.406 212.913 76.583 212.913 77.925C212.913 79.289 213.188 80.488 213.738 81.522C214.31 82.534 215.058 83.315 215.982 83.865C216.928 84.393 217.951 84.657 219.051 84.657C220.173 84.657 221.196 84.393 222.12 83.865C223.066 83.315 223.814 82.534 224.364 81.522C224.914 80.488 225.189 79.278 225.189 77.892ZM235.213 62.58V87H232.21V62.58H235.213ZM248.219 87.297C246.525 87.297 244.985 86.912 243.599 86.142C242.235 85.372 241.157 84.283 240.365 82.875C239.595 81.445 239.21 79.795 239.21 77.925C239.21 76.077 239.606 74.449 240.398 73.041C241.212 71.611 242.312 70.522 243.698 69.774C245.084 69.004 246.635 68.619 248.351 68.619C250.067 68.619 251.618 69.004 253.004 69.774C254.39 70.522 255.479 71.6 256.271 73.008C257.085 74.416 257.492 76.055 257.492 77.925C257.492 79.795 257.074 81.445 256.238 82.875C255.424 84.283 254.313 85.372 252.905 86.142C251.497 86.912 249.935 87.297 248.219 87.297ZM248.219 84.657C249.297 84.657 250.309 84.404 251.255 83.898C252.201 83.392 252.96 82.633 253.532 81.621C254.126 80.609 254.423 79.377 254.423 77.925C254.423 76.473 254.137 75.241 253.565 74.229C252.993 73.217 252.245 72.469 251.321 71.985C250.397 71.479 249.396 71.226 248.318 71.226C247.218 71.226 246.206 71.479 245.282 71.985C244.38 72.469 243.654 73.217 243.104 74.229C242.554 75.241 242.279 76.473 242.279 77.925C242.279 79.399 242.543 80.642 243.071 81.654C243.621 82.666 244.347 83.425 245.249 83.931C246.151 84.415 247.141 84.657 248.219 84.657ZM264.443 71.853C264.971 70.819 265.719 70.016 266.687 69.444C267.677 68.872 268.876 68.586 270.284 68.586V71.688H269.492C266.126 71.688 264.443 73.514 264.443 77.166V87H261.44V68.916H264.443V71.853ZM290.25 77.265C290.25 77.837 290.217 78.442 290.151 79.08H275.697C275.807 80.862 276.412 82.259 277.512 83.271C278.634 84.261 279.987 84.756 281.571 84.756C282.869 84.756 283.947 84.459 284.805 83.865C285.685 83.249 286.301 82.435 286.653 81.423H289.887C289.403 83.161 288.435 84.58 286.983 85.68C285.531 86.758 283.727 87.297 281.571 87.297C279.855 87.297 278.315 86.912 276.951 86.142C275.609 85.372 274.553 84.283 273.783 82.875C273.013 81.445 272.628 79.795 272.628 77.925C272.628 76.055 273.002 74.416 273.75 73.008C274.498 71.6 275.543 70.522 276.885 69.774C278.249 69.004 279.811 68.619 281.571 68.619C283.287 68.619 284.805 68.993 286.125 69.741C287.445 70.489 288.457 71.523 289.161 72.843C289.887 74.141 290.25 75.615 290.25 77.265ZM287.148 76.638C287.148 75.494 286.895 74.515 286.389 73.701C285.883 72.865 285.19 72.238 284.31 71.82C283.452 71.38 282.495 71.16 281.439 71.16C279.921 71.16 278.623 71.644 277.545 72.612C276.489 73.58 275.884 74.922 275.73 76.638H287.148ZM324.759 68.586C326.167 68.586 327.421 68.883 328.521 69.477C329.621 70.049 330.49 70.918 331.128 72.084C331.766 73.25 332.085 74.669 332.085 76.341V87H329.115V76.77C329.115 74.966 328.664 73.591 327.762 72.645C326.882 71.677 325.683 71.193 324.165 71.193C322.603 71.193 321.36 71.699 320.436 72.711C319.512 73.701 319.05 75.142 319.05 77.034V87H316.08V76.77C316.08 74.966 315.629 73.591 314.727 72.645C313.847 71.677 312.648 71.193 311.13 71.193C309.568 71.193 308.325 71.699 307.401 72.711C306.477 73.701 306.015 75.142 306.015 77.034V87H303.012V68.916H306.015V71.523C306.609 70.577 307.401 69.851 308.391 69.345C309.403 68.839 310.514 68.586 311.724 68.586C313.242 68.586 314.584 68.927 315.75 69.609C316.916 70.291 317.785 71.292 318.357 72.612C318.863 71.336 319.699 70.346 320.865 69.642C322.031 68.938 323.329 68.586 324.759 68.586ZM344.898 87.297C343.204 87.297 341.664 86.912 340.278 86.142C338.914 85.372 337.836 84.283 337.044 82.875C336.274 81.445 335.889 79.795 335.889 77.925C335.889 76.077 336.285 74.449 337.077 73.041C337.891 71.611 338.991 70.522 340.377 69.774C341.763 69.004 343.314 68.619 345.03 68.619C346.746 68.619 348.297 69.004 349.683 69.774C351.069 70.522 352.158 71.6 352.95 73.008C353.764 74.416 354.171 76.055 354.171 77.925C354.171 79.795 353.753 81.445 352.917 82.875C352.103 84.283 350.992 85.372 349.584 86.142C348.176 86.912 346.614 87.297 344.898 87.297ZM344.898 84.657C345.976 84.657 346.988 84.404 347.934 83.898C348.88 83.392 349.639 82.633 350.211 81.621C350.805 80.609 351.102 79.377 351.102 77.925C351.102 76.473 350.816 75.241 350.244 74.229C349.672 73.217 348.924 72.469 348 71.985C347.076 71.479 346.075 71.226 344.997 71.226C343.897 71.226 342.885 71.479 341.961 71.985C341.059 72.469 340.333 73.217 339.783 74.229C339.233 75.241 338.958 76.473 338.958 77.925C338.958 79.399 339.222 80.642 339.75 81.654C340.3 82.666 341.026 83.425 341.928 83.931C342.83 84.415 343.82 84.657 344.898 84.657ZM361.123 71.853C361.651 70.819 362.399 70.016 363.367 69.444C364.357 68.872 365.556 68.586 366.964 68.586V71.688H366.172C362.806 71.688 361.123 73.514 361.123 77.166V87H358.12V68.916H361.123V71.853ZM386.93 77.265C386.93 77.837 386.897 78.442 386.831 79.08H372.377C372.487 80.862 373.092 82.259 374.192 83.271C375.314 84.261 376.667 84.756 378.251 84.756C379.549 84.756 380.627 84.459 381.485 83.865C382.365 83.249 382.981 82.435 383.333 81.423H386.567C386.083 83.161 385.115 84.58 383.663 85.68C382.211 86.758 380.407 87.297 378.251 87.297C376.535 87.297 374.995 86.912 373.631 86.142C372.289 85.372 371.233 84.283 370.463 82.875C369.693 81.445 369.308 79.795 369.308 77.925C369.308 76.055 369.682 74.416 370.43 73.008C371.178 71.6 372.223 70.522 373.565 69.774C374.929 69.004 376.491 68.619 378.251 68.619C379.967 68.619 381.485 68.993 382.805 69.741C384.125 70.489 385.137 71.523 385.841 72.843C386.567 74.141 386.93 75.615 386.93 77.265ZM383.828 76.638C383.828 75.494 383.575 74.515 383.069 73.701C382.563 72.865 381.87 72.238 380.99 71.82C380.132 71.38 379.175 71.16 378.119 71.16C376.601 71.16 375.303 71.644 374.225 72.612C373.169 73.58 372.564 74.922 372.41 76.638H383.828ZM406.424 84.228L412.034 68.916H415.235L408.14 87H404.642L397.547 68.916H400.781L406.424 84.228ZM419.741 65.979C419.169 65.979 418.685 65.781 418.289 65.385C417.893 64.989 417.695 64.505 417.695 63.933C417.695 63.361 417.893 62.877 418.289 62.481C418.685 62.085 419.169 61.887 419.741 61.887C420.291 61.887 420.753 62.085 421.127 62.481C421.523 62.877 421.721 63.361 421.721 63.933C421.721 64.505 421.523 64.989 421.127 65.385C420.753 65.781 420.291 65.979 419.741 65.979ZM421.193 68.916V87H418.19V68.916H421.193ZM425.189 77.892C425.189 76.044 425.563 74.427 426.311 73.041C427.059 71.633 428.082 70.544 429.38 69.774C430.7 69.004 432.174 68.619 433.802 68.619C435.21 68.619 436.519 68.949 437.729 69.609C438.939 70.247 439.863 71.094 440.501 72.15V62.58H443.537V87H440.501V83.601C439.907 84.679 439.027 85.57 437.861 86.274C436.695 86.956 435.331 87.297 433.769 87.297C432.163 87.297 430.7 86.901 429.38 86.109C428.082 85.317 427.059 84.206 426.311 82.776C425.563 81.346 425.189 79.718 425.189 77.892ZM440.501 77.925C440.501 76.561 440.226 75.373 439.676 74.361C439.126 73.349 438.378 72.579 437.432 72.051C436.508 71.501 435.485 71.226 434.363 71.226C433.241 71.226 432.218 71.49 431.294 72.018C430.37 72.546 429.633 73.316 429.083 74.328C428.533 75.34 428.258 76.528 428.258 77.892C428.258 79.278 428.533 80.488 429.083 81.522C429.633 82.534 430.37 83.315 431.294 83.865C432.218 84.393 433.241 84.657 434.363 84.657C435.485 84.657 436.508 84.393 437.432 83.865C438.378 83.315 439.126 82.534 439.676 81.522C440.226 80.488 440.501 79.289 440.501 77.925ZM465.112 77.265C465.112 77.837 465.079 78.442 465.013 79.08H450.559C450.669 80.862 451.274 82.259 452.374 83.271C453.496 84.261 454.849 84.756 456.433 84.756C457.731 84.756 458.809 84.459 459.667 83.865C460.547 83.249 461.163 82.435 461.515 81.423H464.749C464.265 83.161 463.297 84.58 461.845 85.68C460.393 86.758 458.589 87.297 456.433 87.297C454.717 87.297 453.177 86.912 451.813 86.142C450.471 85.372 449.415 84.283 448.645 82.875C447.875 81.445 447.49 79.795 447.49 77.925C447.49 76.055 447.864 74.416 448.612 73.008C449.36 71.6 450.405 70.522 451.747 69.774C453.111 69.004 454.673 68.619 456.433 68.619C458.149 68.619 459.667 68.993 460.987 69.741C462.307 70.489 463.319 71.523 464.023 72.843C464.749 74.141 465.112 75.615 465.112 77.265ZM462.01 76.638C462.01 75.494 461.757 74.515 461.251 73.701C460.745 72.865 460.052 72.238 459.172 71.82C458.314 71.38 457.357 71.16 456.301 71.16C454.783 71.16 453.485 71.644 452.407 72.612C451.351 73.58 450.746 74.922 450.592 76.638H462.01ZM476.963 87.297C475.269 87.297 473.729 86.912 472.343 86.142C470.979 85.372 469.901 84.283 469.109 82.875C468.339 81.445 467.954 79.795 467.954 77.925C467.954 76.077 468.35 74.449 469.142 73.041C469.956 71.611 471.056 70.522 472.442 69.774C473.828 69.004 475.379 68.619 477.095 68.619C478.811 68.619 480.362 69.004 481.748 69.774C483.134 70.522 484.223 71.6 485.015 73.008C485.829 74.416 486.236 76.055 486.236 77.925C486.236 79.795 485.818 81.445 484.982 82.875C484.168 84.283 483.057 85.372 481.649 86.142C480.241 86.912 478.679 87.297 476.963 87.297ZM476.963 84.657C478.041 84.657 479.053 84.404 479.999 83.898C480.945 83.392 481.704 82.633 482.276 81.621C482.87 80.609 483.167 79.377 483.167 77.925C483.167 76.473 482.881 75.241 482.309 74.229C481.737 73.217 480.989 72.469 480.065 71.985C479.141 71.479 478.14 71.226 477.062 71.226C475.962 71.226 474.95 71.479 474.026 71.985C473.124 72.469 472.398 73.217 471.848 74.229C471.298 75.241 471.023 76.473 471.023 77.925C471.023 79.399 471.287 80.642 471.815 81.654C472.365 82.666 473.091 83.425 473.993 83.931C474.895 84.415 475.885 84.657 476.963 84.657ZM496.586 87.297C495.2 87.297 493.957 87.066 492.857 86.604C491.757 86.12 490.888 85.46 490.25 84.624C489.612 83.766 489.26 82.787 489.194 81.687H492.296C492.384 82.589 492.802 83.326 493.55 83.898C494.32 84.47 495.321 84.756 496.553 84.756C497.697 84.756 498.599 84.503 499.259 83.997C499.919 83.491 500.249 82.853 500.249 82.083C500.249 81.291 499.897 80.708 499.193 80.334C498.489 79.938 497.4 79.553 495.926 79.179C494.584 78.827 493.484 78.475 492.626 78.123C491.79 77.749 491.064 77.21 490.448 76.506C489.854 75.78 489.557 74.834 489.557 73.668C489.557 72.744 489.832 71.897 490.382 71.127C490.932 70.357 491.713 69.752 492.725 69.312C493.737 68.85 494.892 68.619 496.19 68.619C498.192 68.619 499.809 69.125 501.041 70.137C502.273 71.149 502.933 72.535 503.021 74.295H500.018C499.952 73.349 499.567 72.59 498.863 72.018C498.181 71.446 497.257 71.16 496.091 71.16C495.013 71.16 494.155 71.391 493.517 71.853C492.879 72.315 492.56 72.92 492.56 73.668C492.56 74.262 492.747 74.757 493.121 75.153C493.517 75.527 494.001 75.835 494.573 76.077C495.167 76.297 495.981 76.55 497.015 76.836C498.313 77.188 499.369 77.54 500.183 77.892C500.997 78.222 501.69 78.728 502.262 79.41C502.856 80.092 503.164 80.983 503.186 82.083C503.186 83.073 502.911 83.964 502.361 84.756C501.811 85.548 501.03 86.175 500.018 86.637C499.028 87.077 497.884 87.297 496.586 87.297ZM508.382 87.198C507.81 87.198 507.326 87 506.93 86.604C506.534 86.208 506.336 85.724 506.336 85.152C506.336 84.58 506.534 84.096 506.93 83.7C507.326 83.304 507.81 83.106 508.382 83.106C508.932 83.106 509.394 83.304 509.768 83.7C510.164 84.096 510.362 84.58 510.362 85.152C510.362 85.724 510.164 86.208 509.768 86.604C509.394 87 508.932 87.198 508.382 87.198Z" fill="black"/>
<g clip-path="url(#clip0_30_330)">
<path d="M355.211 11.1828C354.882 9.98762 354.238 8.89806 353.346 8.02261C352.453 7.14716 351.342 6.51638 350.124 6.1931C345.663 5 327.711 5 327.711 5C327.711 5 309.758 5.03621 305.298 6.22931C304.079 6.55264 302.968 7.18345 302.076 8.05889C301.183 8.93433 300.54 10.0239 300.21 11.219C298.861 18.9931 298.338 30.8383 300.247 38.301C300.577 39.4961 301.22 40.5857 302.113 41.4611C303.005 42.3366 304.116 42.9674 305.334 43.2907C309.795 44.4838 327.748 44.4838 327.748 44.4838C327.748 44.4838 345.7 44.4838 350.161 43.2907C351.379 42.9674 352.49 42.3366 353.383 41.4611C354.275 40.5857 354.918 39.4961 355.248 38.301C356.671 30.5162 357.109 18.6783 355.211 11.1831" fill="#FF0000"/>
<path d="M321.997 33.203L336.89 24.7423L321.997 16.2812V33.203Z" fill="white"/>
<path d="M471.701 16.4619C473.654 16.4619 475.129 16.8233 476.161 17.5102C477.193 18.1973 477.93 19.2822 478.373 20.7647C478.815 22.2471 478.999 24.2716 478.999 26.875V31.1057H469.525V32.4071L469.673 35.9868C469.783 36.7823 469.968 37.3609 470.263 37.7223C470.558 38.084 471.037 38.2647 471.664 38.2647C472.512 38.2647 473.101 37.9395 473.396 37.2888C473.728 36.6378 473.875 35.553 473.912 34.0705L478.815 34.3599C478.852 34.5768 478.852 34.8661 478.852 35.2274C478.852 37.5054 478.225 39.205 476.935 40.3257C475.645 41.4464 473.875 42.025 471.553 42.025C468.751 42.025 466.798 41.1574 465.692 39.4581C464.586 37.7585 463.996 35.0826 463.996 31.5033V27.1281C464.121 20.9816 465.223 16.4799 471.701 16.4619ZM403.54 16.9319V35.0468C403.54 36.1316 403.65 36.9271 403.908 37.3971C404.431 38.4023 405.788 38.1454 406.525 37.6502C406.951 37.3679 407.294 36.9816 407.521 36.5295V16.9316H413.161V41.6271H408.737L408.258 38.5899H408.147C406.931 40.8678 405.124 42.0247 402.729 42.0247C399.041 42.0157 398.138 39.4095 397.923 36.7626L397.909 36.5761C397.883 36.1752 397.867 35.7736 397.863 35.3719V16.9319H403.54ZM432.625 16.9319V35.0468C432.625 36.1316 432.735 36.9271 432.993 37.3971C433.517 38.4023 434.874 38.1454 435.611 37.6502C436.036 37.3679 436.379 36.9816 436.606 36.5295V16.9316H442.246V41.6271H437.823L437.343 38.5899H437.233C436.017 40.8678 434.21 42.0247 431.814 42.0247C428.126 42.0157 427.224 39.4095 427.009 36.7626L426.995 36.5761C426.968 36.1752 426.953 35.7736 426.948 35.3719V16.9319H432.625ZM387.172 16.4619C389.015 16.4619 390.526 16.8233 391.633 17.5826C392.738 18.3419 393.586 19.4992 394.102 21.0899C394.618 22.6809 394.876 24.814 394.876 27.4537V31.033C394.876 33.6726 394.618 35.7699 394.102 37.3605C393.586 38.9519 392.775 40.1088 391.633 40.8681C390.49 41.5912 388.941 41.9888 387.025 41.9888C385.034 42.025 383.485 41.6274 382.343 40.9043C381.2 40.145 380.389 38.9878 379.91 37.3971C379.43 35.8061 379.209 33.7088 379.209 31.0695V27.4895C379.209 24.8499 379.467 22.6806 380.02 21.0895C380.573 19.4626 381.421 18.3054 382.601 17.5826C383.78 16.8592 385.292 16.4619 387.172 16.4619ZM451.094 6.55469V19.5712H451.131C451.647 18.6312 452.31 17.8719 453.232 17.2933C454.093 16.7259 455.107 16.4238 456.144 16.4257C457.508 16.4257 458.54 16.7871 459.314 17.474C460.088 18.1974 460.641 19.3181 460.973 20.873C461.295 22.3792 461.477 24.4623 461.489 27.0892L461.489 27.3454V31.2502C461.489 34.9019 461.01 37.614 460.125 39.3495C459.204 41.085 457.803 41.953 455.886 41.953C454.817 41.953 453.858 41.6999 452.974 41.2299C452.192 40.7824 451.543 40.1412 451.093 39.3706L451.02 39.2409H450.909L450.32 41.5912H445.638V6.55503L451.094 6.55469ZM428.533 7.8202V12.3033H422.93V41.6271H417.4V12.3037H411.76V7.82055L428.533 7.8202ZM367.745 7.8202L367.748 7.834C367.802 8.06883 368.547 11.3188 369.367 15.1054L369.432 15.4054L369.529 15.8588L369.595 16.1633L369.627 16.3161L369.693 16.6223L369.726 16.7757L369.791 17.083L369.886 17.5323C370.439 20.1543 370.968 22.784 371.284 24.6695H371.431C371.734 22.9781 372.174 20.8137 372.643 18.6037L372.766 18.0264C372.828 17.7372 372.89 17.4485 372.952 17.1602L373.049 16.713C373.685 13.7843 374.341 10.8596 375.016 7.93917L375.027 7.89262L375.044 7.8202H380.684L374.159 30.6357V41.5912H368.592V30.6716H368.556L362.104 7.81986L367.745 7.8202ZM387.061 20.2943C386.287 20.2943 385.771 20.6923 385.439 21.524C385.108 22.3557 384.96 23.6209 384.96 25.393V33.0943C384.96 34.9023 385.107 36.2399 385.402 37.0357C385.698 37.8311 386.25 38.2288 387.061 38.2288C387.835 38.2288 388.388 37.8311 388.72 37.0357C389.052 36.2399 389.199 34.9023 389.199 33.0943V25.3926C389.199 23.6209 389.052 22.3192 388.72 21.5237C388.388 20.6923 387.835 20.2943 387.061 20.2943ZM452.089 21.0178C451.64 21.4247 451.32 21.9264 451.13 22.5537L451.094 22.6809V36.7099C451.551 37.4692 452.2 37.9754 453.342 38.0116C453.932 38.0116 454.411 37.7947 454.78 37.3609C455.149 36.9271 455.407 36.2039 455.554 35.1912C455.696 34.2195 455.769 32.8811 455.775 31.1761V27.743C455.775 25.7906 455.701 24.3081 455.591 23.2595C455.443 22.2109 455.259 21.4516 454.927 21.0178C454.286 20.1137 452.9 20.1247 452.089 21.0178ZM471.59 20.1861C470.963 20.2222 470.521 20.403 470.263 20.7285C469.968 21.0899 469.783 21.6323 469.673 22.4278C469.564 23.2071 469.527 25.9312 469.525 26.0402V27.8154H473.654V26.2499V26.2799C473.652 26.8271 473.64 25.9623 473.615 24.9006L473.611 24.7578C473.588 23.8247 473.554 22.7843 473.507 22.4278C473.396 21.5961 473.212 21.0174 472.917 20.6923C472.622 20.3668 472.18 20.1861 471.59 20.1861Z" fill="#282828"/>
</g>
<defs>
<clipPath id="clip0_30_330">
<rect width="180" height="40" fill="white" transform="translate(299 5)"/>
</clipPath>
</defs>
</svg>
